<svg width="36" height="36" viewBox="0 0 36 36" fill="none" xmlns="http://www.w3.org/2000/svg">
<path d="M27.8438 16.5938C27.4556 16.5938 27.1406 16.9087 27.1406 17.2969C27.1406 17.685 27.4556 18 27.8438 18C28.2319 18 28.5469 17.685 28.5469 17.2969C28.5469 16.9087 28.2319 16.5938 27.8438 16.5938Z" fill="white"/>
<path d="M8.15625 16.5938C7.76812 16.5938 7.45312 16.9087 7.45312 17.2969C7.45312 17.685 7.76812 18 8.15625 18C8.54437 18 8.85938 17.685 8.85938 17.2969C8.85938 16.9087 8.54437 16.5938 8.15625 16.5938Z" fill="white"/>
<path d="M24.3281 19.4062H20.8125V15.8906C20.8125 15.5024 20.4976 15.1875 20.1094 15.1875H15.8906C15.5024 15.1875 15.1875 15.5024 15.1875 15.8906V19.4062H11.6719C11.2836 19.4062 10.9688 19.7211 10.9688 20.1094V24.3281C10.9688 24.7164 11.2836 25.0312 11.6719 25.0312H15.1875V28.5469C15.1875 28.9351 15.5024 29.25 15.8906 29.25H20.1094C20.4976 29.25 20.8125 28.9351 20.8125 28.5469V25.0312H24.3281C24.7164 25.0312 25.0312 24.7164 25.0312 24.3281V20.1094C25.0312 19.7211 24.7164 19.4062 24.3281 19.4062ZM23.625 23.625H20.1094C19.7211 23.625 19.4062 23.9399 19.4062 24.3281V27.8438H16.5938V24.3281C16.5938 23.9399 16.2789 23.625 15.8906 23.625H12.375V20.8125H15.8906C16.2789 20.8125 16.5938 20.4976 16.5938 20.1094V16.5938H19.4062V20.1094C19.4062 20.4976 19.7211 20.8125 20.1094 20.8125H23.625V23.625Z" fill="white"/>
<path d="M32.4844 9.5625H27.1406V5.34375C27.1406 3.01753 25.2481 1.125 22.9219 1.125H13.0781C10.7519 1.125 8.85938 3.01753 8.85938 5.34375V9.5625H3.51562C1.57711 9.5625 0 11.1396 0 13.0781V31.3594C0 33.2979 1.57711 34.875 3.51562 34.875H32.4844C34.4229 34.875 36 33.2979 36 31.3594V13.0781C36 11.1396 34.4229 9.5625 32.4844 9.5625ZM10.2656 5.34375C10.2656 3.79294 11.5273 2.53125 13.0781 2.53125H22.9219C24.4727 2.53125 25.7344 3.79294 25.7344 5.34375V9.5625H24.3281V6.04688C24.3281 4.88377 23.3819 3.9375 22.2188 3.9375H13.7812C12.6181 3.9375 11.6719 4.88377 11.6719 6.04688V9.5625H10.2656V5.34375ZM22.9219 6.04688V9.5625H13.0781V6.04688C13.0781 5.65917 13.3935 5.34375 13.7812 5.34375H22.2188C22.6065 5.34375 22.9219 5.65917 22.9219 6.04688ZM4.64062 33.4688H3.51562C2.35252 33.4688 1.40625 32.5225 1.40625 31.3594V13.0781C1.40625 11.915 2.35252 10.9688 3.51562 10.9688H4.64062V33.4688ZM29.9531 33.4688H28.5469V20.1094C28.5469 19.7211 28.232 19.4062 27.8438 19.4062C27.4555 19.4062 27.1406 19.7211 27.1406 20.1094V33.4688H8.85938V20.1094C8.85938 19.7211 8.54452 19.4062 8.15625 19.4062C7.76798 19.4062 7.45312 19.7211 7.45312 20.1094V33.4688H6.04688V10.9688H7.45312V14.4844C7.45312 14.8726 7.76798 15.1875 8.15625 15.1875C8.54452 15.1875 8.85938 14.8726 8.85938 14.4844V10.9688H27.1406V14.4844C27.1406 14.8726 27.4555 15.1875 27.8438 15.1875C28.232 15.1875 28.5469 14.8726 28.5469 14.4844V10.9688H29.9531V33.4688ZM34.5938 31.3594C34.5938 32.5225 33.6475 33.4688 32.4844 33.4688H31.3594V10.9688H32.4844C33.6475 10.9688 34.5938 11.915 34.5938 13.0781V31.3594Z" fill="white"/>
</svg>
