<svg width="36" height="36" viewBox="0 0 36 36" fill="none" xmlns="http://www.w3.org/2000/svg">
<path d="M22.2188 26.7188C22.6068 26.7188 22.9219 26.4037 22.9219 26.0156C22.9219 25.6275 22.6068 25.3125 22.2188 25.3125C21.8307 25.3125 21.5156 25.6275 21.5156 26.0156C21.5156 26.4037 21.8307 26.7188 22.2188 26.7188Z" fill="white"/>
<path d="M13.7812 26.7188C14.1693 26.7188 14.4844 26.4037 14.4844 26.0156C14.4844 25.6275 14.1693 25.3125 13.7812 25.3125C13.3932 25.3125 13.0781 25.6275 13.0781 26.0156C13.0781 26.4037 13.3932 26.7188 13.7812 26.7188Z" fill="white"/>
<path d="M10.9688 36H25.0312C25.4196 36 25.7344 35.6852 25.7344 35.2969V32.1688C25.7344 31.9985 25.7964 31.834 25.9088 31.7054C25.9104 31.7035 25.9118 31.7016 25.9135 31.6997L33.653 22.6544C33.9876 22.2698 34.1719 21.7779 34.1719 21.2687V11.25C34.1719 9.69928 32.9101 8.4375 31.3594 8.4375C29.8087 8.4375 28.5469 9.69928 28.5469 11.25C28.5469 11.25 28.5455 17.2952 28.5447 17.3241C28.4664 17.22 28.3807 17.1205 28.2868 17.0269C27.1502 15.8904 25.3347 16.0475 24.4811 16.9266L18.2964 23.299C18.1892 23.4088 18.0909 23.5247 18 23.6456C17.9096 23.5253 17.8116 23.4097 17.705 23.3004L11.5189 16.9266C10.6817 16.0645 8.86459 15.8752 7.71323 17.0269C7.61929 17.1208 7.53278 17.2205 7.45422 17.3249C7.4534 17.2958 7.45312 11.25 7.45312 11.25C7.45312 9.69928 6.19135 8.4375 4.64062 8.4375C3.0899 8.4375 1.82812 9.69928 1.82812 11.25V21.2687C1.82812 21.7779 2.01242 22.2698 2.34695 22.6541C2.34695 22.6541 10.0896 31.7035 10.0912 31.7054C10.2036 31.834 10.2656 31.9985 10.2656 32.1688V35.2969C10.2656 35.6852 10.5804 36 10.9688 36ZM19.3041 24.2798L25.4655 17.9316C26.0022 17.4908 26.7992 17.5279 27.2925 18.0211C27.8245 18.5532 27.8248 19.4153 27.2925 19.9473C27.2922 19.9476 27.292 19.9479 27.2917 19.9482L23.7093 23.5305C23.4347 23.8052 23.4347 24.2504 23.7093 24.5251C23.9837 24.7994 24.4289 24.7994 24.7036 24.5251L28.5117 20.7169C29.4412 19.7875 29.9531 18.5518 29.9531 17.237V11.25C29.9531 10.4746 30.584 9.84375 31.3594 9.84375C32.1347 9.84375 32.7656 10.4746 32.7656 11.25V21.2687C32.7656 21.439 32.7036 21.6035 32.5912 21.7321C32.5896 21.734 32.5882 21.7359 32.5865 21.7378L24.847 30.7834C24.5124 31.1677 24.3281 31.6596 24.3281 32.1688V34.5938H18.7031V25.7542C18.7031 25.2004 18.916 24.6775 19.3041 24.2798ZM3.41345 21.7378C3.41208 21.7359 3.41043 21.734 3.40878 21.7321C3.29645 21.6035 3.23438 21.439 3.23438 21.2687V11.25C3.23438 10.4746 3.86526 9.84375 4.64062 9.84375C5.41599 9.84375 6.04688 10.4746 6.04688 11.25V17.237C6.04688 18.5518 6.55884 19.7875 7.48828 20.7169L11.2964 24.5251C11.5711 24.7994 12.0163 24.7997 12.2907 24.5251C12.5653 24.2504 12.5653 23.8052 12.2907 23.5305L8.70749 19.9473C8.17548 19.4153 8.1752 18.5534 8.70749 18.0211C9.20078 17.5276 9.99783 17.4908 10.5345 17.9316L16.6973 24.2814C17.084 24.6775 17.2969 25.2004 17.2969 25.7542V34.5938H11.6719V32.1688C11.6719 31.6596 11.4876 31.1677 11.153 30.7834L3.41345 21.7378Z" fill="white"/>
<path d="M11.6719 13.3594V14.7656C11.6719 15.154 11.9866 15.4688 12.375 15.4688H23.625C24.0134 15.4688 24.3281 15.154 24.3281 14.7656V13.3594C24.3281 9.87671 21.5104 7.03125 18 7.03125C14.5107 7.03125 11.6719 9.87012 11.6719 13.3594ZM18 8.4375C20.715 8.4375 22.9219 10.6345 22.9219 13.3594V14.0625H13.0781V13.3594C13.0781 10.6455 15.2861 8.4375 18 8.4375Z" fill="white"/>
<path d="M21.5156 3.51562C21.5156 1.57709 19.9385 0 18 0C16.0615 0 14.4844 1.57709 14.4844 3.51562C14.4844 5.45416 16.0615 7.03125 18 7.03125C19.9385 7.03125 21.5156 5.45416 21.5156 3.51562ZM18 5.625C16.8368 5.625 15.8906 4.6788 15.8906 3.51562C15.8906 2.35245 16.8368 1.40625 18 1.40625C19.1632 1.40625 20.1094 2.35245 20.1094 3.51562C20.1094 4.6788 19.1632 5.625 18 5.625Z" fill="white"/>
</svg>
