<svg width="36" height="36" viewBox="0 0 36 36" fill="none" xmlns="http://www.w3.org/2000/svg">
<path d="M23.3648 9.57775H12.6352C10.9226 9.57775 9.52922 10.9711 9.52922 12.6837V23.4134C9.52922 25.126 10.9226 26.5197 12.6352 26.5197H23.3648C25.0774 26.5197 26.4712 25.1264 26.4712 23.4134V12.6837C26.4712 10.9711 25.0778 9.57775 23.3648 9.57775ZM18 23.6259C14.9249 23.6259 12.423 21.124 12.423 18.0485C12.423 14.9735 14.9249 12.4715 18 12.4715C21.0755 12.4715 23.5774 14.9735 23.5774 18.0485C23.5774 21.1236 21.0751 23.6259 18 23.6259ZM23.7567 13.6246C23.0287 13.6246 22.4367 13.0326 22.4367 12.3051C22.4367 11.5775 23.0287 10.9855 23.7567 10.9855C24.4842 10.9855 25.0762 11.5775 25.0762 12.3051C25.0762 13.0326 24.4842 13.6246 23.7567 13.6246Z" fill="white"/>
<path d="M18 14.8283C16.2248 14.8283 14.7793 16.273 14.7793 18.0481C14.7793 19.8241 16.2248 21.2692 18 21.2692C19.776 21.2692 21.2203 19.8241 21.2203 18.0481C21.2203 16.2734 19.7756 14.8283 18 14.8283Z" fill="white"/>
<path d="M18 0C8.05927 0 0 8.05927 0 18C0 27.9407 8.05927 36 18 36C27.9407 36 36 27.9407 36 18C36 8.05927 27.9407 0 18 0ZM28.8275 23.4134C28.8275 26.4259 26.3773 28.876 23.3648 28.876H12.6352C9.62307 28.876 7.17249 26.4259 7.17249 23.4134V12.6837C7.17249 9.67161 9.62307 7.22102 12.6352 7.22102H23.3648C26.3773 7.22102 28.8275 9.67161 28.8275 12.6837V23.4134Z" fill="white"/>
</svg>
