<svg width="16" height="12" viewBox="0 0 16 12" fill="none" xmlns="http://www.w3.org/2000/svg">
<path d="M14.006 12C15.1031 12 16 11.1218 16 10.0387V1.96127C16 0.882179 15.1071 0 14.006 0H1.99399C0.896897 0 0 0.878241 0 1.96127V10.0387C0 11.1178 0.892893 12 1.99399 12H14.006ZM2.03804 2.72924C1.82983 2.55596 1.80581 2.25271 1.98198 2.04792C2.15816 1.84312 2.46647 1.81949 2.67467 1.99278L8 6.44306L13.3293 1.99672C13.5375 1.82343 13.8458 1.851 14.022 2.05185C14.1982 2.25665 14.1702 2.55989 13.966 2.73318L10.1622 5.90745L13.982 9.44404C14.1782 9.62521 14.1902 9.93239 14.002 10.1254C13.9059 10.2278 13.7738 10.279 13.6456 10.279C13.5255 10.279 13.4054 10.2356 13.3093 10.149L9.40541 6.53758L8.31632 7.44732C8.22422 7.52215 8.11211 7.56153 8 7.56153C7.88789 7.56153 7.77578 7.52215 7.68368 7.44732L6.59459 6.53758L2.69069 10.149C2.59459 10.2356 2.47447 10.279 2.35435 10.279C2.22222 10.279 2.09409 10.2278 1.998 10.1254C1.81381 9.93239 1.82182 9.62521 2.01802 9.44404L5.83784 5.90745L2.03804 2.72924Z" fill="white"/>
</svg>
