<svg width="16" height="16" viewBox="0 0 16 16" fill="none" xmlns="http://www.w3.org/2000/svg">
<path d="M12.1643 10.5843C11.6416 10.0683 10.989 10.0683 10.4696 10.5843C10.0734 10.9772 9.6772 11.3701 9.28765 11.7696C9.18111 11.8795 9.09122 11.9028 8.96137 11.8295C8.705 11.6897 8.43198 11.5765 8.18561 11.4234C7.03695 10.7009 6.07474 9.77194 5.2224 8.7265C4.79956 8.2071 4.42333 7.65108 4.1603 7.02515C4.10703 6.89863 4.11702 6.81539 4.22023 6.71218C4.61644 6.32929 5.00265 5.93642 5.3922 5.54354C5.9349 4.99751 5.9349 4.35826 5.38887 3.8089C5.07923 3.49593 4.76959 3.18962 4.45995 2.87665C4.14033 2.55703 3.82403 2.23407 3.50107 1.91777C2.97835 1.40837 2.32578 1.40837 1.80638 1.9211C1.40685 2.31398 1.02396 2.71684 0.617769 3.10306C0.241541 3.45931 0.0517622 3.89547 0.0118088 4.40487C-0.0514507 5.2339 0.151646 6.01632 0.437978 6.77877C1.02396 8.35693 1.91625 9.75863 2.99832 11.0438C4.45995 12.7818 6.20458 14.1568 8.24554 15.149C9.16446 15.5951 10.1167 15.9381 11.1521 15.9947C11.8646 16.0346 12.4839 15.8548 12.98 15.2988C13.3196 14.9193 13.7025 14.573 14.0621 14.2101C14.5948 13.6707 14.5981 13.0182 14.0687 12.4854C13.4361 11.8495 12.8002 11.2169 12.1643 10.5843Z" fill="white"/>
<path d="M11.5283 7.93077L12.7569 7.72101C12.5638 6.59233 12.0311 5.57019 11.222 4.7578C10.3664 3.90213 9.28429 3.36276 8.09235 3.19629L7.91922 4.43151C8.84148 4.56136 9.6805 4.97754 10.3431 5.6401C10.969 6.26604 11.3785 7.05845 11.5283 7.93077Z" fill="white"/>
<path d="M13.4494 2.59031C12.0311 1.17197 10.2365 0.276344 8.2555 0L8.08237 1.23523C9.7937 1.47495 11.3452 2.25071 12.5705 3.47262C13.7324 4.63459 14.4949 6.10288 14.7712 7.71766L15.9998 7.50791C15.6768 5.63676 14.7945 3.93874 13.4494 2.59031Z" fill="white"/>
</svg>
