<svg width="36" height="36" viewBox="0 0 36 36" fill="none" xmlns="http://www.w3.org/2000/svg">
<path d="M30.4533 0H13.4675C13.281 0 13.1022 0.0741094 12.9703 0.205945L11.3027 1.87355L10.0708 0.641531C9.23302 -0.196172 7.86987 -0.196242 7.03209 0.641531C6.19432 1.4793 6.19432 2.84245 7.03209 3.68023L8.26439 4.91245L4.98727 8.18888C4.85536 8.32071 4.78125 8.49959 4.78125 8.68612V35.2969C4.78125 35.6852 5.09604 36 5.48438 36H26.8185C27.2068 36 27.5216 35.6852 27.5216 35.2969V32.7454H30.4533C30.8416 32.7454 31.1564 32.4307 31.1564 32.0423V0.703125C31.1565 0.314789 30.8417 0 30.4533 0ZM8.02645 1.63596C8.31586 1.34648 8.78688 1.34641 9.07636 1.63596L10.3084 2.86798L9.25847 3.91781L8.02645 2.68587C7.73698 2.39639 7.73698 1.92537 8.02645 1.63596ZM29.7502 31.3392H9.60574V28.9898C9.60574 28.6015 9.29095 28.2867 8.90262 28.2867C8.90255 28.2867 8.90255 28.2867 8.90248 28.2867C8.90241 28.2867 8.90241 28.2867 8.90234 28.2867C8.514 28.2867 8.19921 28.6015 8.19921 28.9898V32.0423C8.19921 32.2608 8.29884 32.456 8.45515 32.5849C8.57672 32.6853 8.7326 32.7457 8.90262 32.7457H26.1154V34.5938H6.18757V8.97736L8.19921 6.96614V22.8067C8.19921 23.195 8.514 23.5098 8.90234 23.5098H8.90248C8.90248 23.5098 8.90255 23.5098 8.90262 23.5098C9.29095 23.5098 9.60574 23.195 9.60574 22.8067V6.25387L10.2105 6.85863C10.7347 7.38288 11.4317 7.67159 12.173 7.67159C12.9143 7.67159 13.6113 7.38288 14.1356 6.8587C15.2177 5.77652 15.2177 4.01583 14.1356 2.93365L14.0848 2.88281C13.8102 2.60824 13.365 2.60824 13.0904 2.88281C12.8157 3.15738 12.8158 3.6026 13.0904 3.87724L13.1411 3.92801C13.6749 4.46182 13.6749 5.33039 13.1411 5.86427C12.8825 6.12288 12.5387 6.26534 12.173 6.26534C11.8073 6.26534 11.4635 6.12295 11.2049 5.86427L10.2528 4.91224L13.7587 1.40625H29.7502V31.3392Z" fill="white"/>
<path d="M17.6288 9.26587H27.0325C27.4208 9.26587 27.7356 8.95108 27.7356 8.56274V4.97498C27.7356 4.58664 27.4208 4.27185 27.0325 4.27185H17.6288C17.2405 4.27185 16.9257 4.58664 16.9257 4.97498V8.56267C16.9257 8.95108 17.2405 9.26587 17.6288 9.26587ZM18.3319 5.6781H26.3293V7.85955H18.3319V5.6781Z" fill="white"/>
<path d="M14.2453 12.5835H12.606C12.2176 12.5835 11.9029 12.8983 11.9029 13.2866C11.9029 13.675 12.2176 13.9897 12.606 13.9897H14.2453C14.6336 13.9897 14.9484 13.675 14.9484 13.2866C14.9484 12.8983 14.6337 12.5835 14.2453 12.5835Z" fill="white"/>
<path d="M17.6288 13.9897H27.0325C27.4208 13.9897 27.7356 13.675 27.7356 13.2866C27.7356 12.8983 27.4208 12.5835 27.0325 12.5835H17.6288C17.2405 12.5835 16.9257 12.8983 16.9257 13.2866C16.9257 13.675 17.2405 13.9897 17.6288 13.9897Z" fill="white"/>
<path d="M17.6288 17.4642H24.2756C24.664 17.4642 24.9787 17.1494 24.9787 16.7611C24.9787 16.3728 24.664 16.058 24.2756 16.058H17.6288C17.2405 16.058 16.9257 16.3728 16.9257 16.7611C16.9257 17.1494 17.2405 17.4642 17.6288 17.4642Z" fill="white"/>
<path d="M14.2453 21.5192H12.606C12.2176 21.5192 11.9029 21.834 11.9029 22.2223C11.9029 22.6106 12.2176 22.9254 12.606 22.9254H14.2453C14.6336 22.9254 14.9484 22.6106 14.9484 22.2223C14.9484 21.834 14.6337 21.5192 14.2453 21.5192Z" fill="white"/>
<path d="M17.6288 22.9254H27.0325C27.4208 22.9254 27.7356 22.6106 27.7356 22.2223C27.7356 21.834 27.4208 21.5192 27.0325 21.5192H17.6288C17.2405 21.5192 16.9257 21.834 16.9257 22.2223C16.9257 22.6106 17.2405 22.9254 17.6288 22.9254Z" fill="white"/>
<path d="M17.6288 26.3999H24.2756C24.664 26.3999 24.9787 26.0851 24.9787 25.6968C24.9787 25.3084 24.664 24.9937 24.2756 24.9937H17.6288C17.2405 24.9937 16.9257 25.3084 16.9257 25.6968C16.9257 26.0851 17.2405 26.3999 17.6288 26.3999Z" fill="white"/>
<path d="M9.55161 25.5909C9.43798 25.3137 9.14893 25.1366 8.85052 25.1589C8.54466 25.1817 8.28436 25.4066 8.21665 25.7056C8.08446 26.2897 8.72874 26.7632 9.24842 26.4709C9.5533 26.2993 9.68626 25.9142 9.55161 25.5909Z" fill="white"/>
</svg>
