<svg width="24" height="24" viewBox="0 0 24 24" fill="none" xmlns="http://www.w3.org/2000/svg">
<path fill-rule="evenodd" clip-rule="evenodd" d="M12 24C18.6274 24 24 18.6274 24 12C24 5.37258 18.6274 0 12 0C5.37258 0 0 5.37258 0 12C0 18.6274 5.37258 24 12 24ZM8.2682 18.6667H15.7318C16.9096 18.6221 18.0199 18.1525 18.8194 17.3609C19.6189 16.5693 20.0423 15.5202 19.9967 14.4438V10.2219C20.042 9.14564 19.6185 8.09686 18.819 7.30546C18.0196 6.51406 16.9094 6.0446 15.7318 6H8.2682C7.09069 6.04485 5.98066 6.51438 5.18126 7.30573C4.38186 8.09707 3.95826 9.14571 4.0033 10.2219V14.4438C3.95797 15.5201 4.38144 16.5691 5.18087 17.3606C5.9803 18.1522 7.0905 18.6218 8.2682 18.6667ZM17.2915 8.65044C17.691 9.06025 17.8969 9.59786 17.8642 10.1459V14.5198C17.8969 15.0678 17.691 15.6054 17.2915 16.0152C16.892 16.4251 16.3313 16.6738 15.7318 16.7072H8.2682C7.66871 16.6738 7.108 16.4251 6.70849 16.0152C6.30898 15.6054 6.1031 15.0678 6.13575 14.5198V10.1459C6.1031 9.59786 6.30898 9.06025 6.70849 8.65044C7.108 8.24062 7.66871 7.99188 8.2682 7.95847H15.7318C16.3313 7.99188 16.892 8.24062 17.2915 8.65044ZM14.6655 12.3333L10.4006 9.88477V14.7799L14.6655 12.3333Z" fill="white"/>
</svg>
