<svg width="36" height="36" viewBox="0 0 36 36" fill="none" xmlns="http://www.w3.org/2000/svg">
<path fill-rule="evenodd" clip-rule="evenodd" d="M18 36C27.9411 36 36 27.9411 36 18C36 8.05887 27.9411 0 18 0C8.05887 0 0 8.05887 0 18C0 27.9411 8.05887 36 18 36ZM12.4023 28H23.5976C25.3643 27.9331 27.0299 27.2287 28.2291 26.0413C29.4284 24.8539 30.0634 23.2803 29.995 21.6657V15.3329C30.063 13.7185 29.4277 12.1453 28.2285 10.9582C27.0293 9.77109 25.364 9.0669 23.5976 9H12.4023C10.636 9.06728 8.97099 9.77157 7.77189 10.9586C6.57278 12.1456 5.93739 13.7186 6.00495 15.3329V21.6657C5.93696 23.2802 6.57215 24.8536 7.7713 26.0409C8.97045 27.2283 10.6358 27.9327 12.4023 28ZM25.9372 12.9757C26.5365 13.5904 26.8453 14.3968 26.7963 15.2189V21.7797C26.8453 22.6017 26.5365 23.4082 25.9372 24.0229C25.3379 24.6376 24.4969 25.0107 23.5976 25.0609H12.4023C11.5031 25.0107 10.662 24.6376 10.0627 24.0229C9.46347 23.4082 9.15464 22.6017 9.20362 21.7797V15.2189C9.15464 14.3968 9.46347 13.5904 10.0627 12.9757C10.662 12.3609 11.5031 11.9878 12.4023 11.9377H23.5976C24.4969 11.9878 25.3379 12.3609 25.9372 12.9757ZM21.9983 18.5L15.601 14.8272V22.1699L21.9983 18.5Z" fill="white"/>
</svg>
