<svg width="11" height="12" viewBox="0 0 11 12" fill="none" xmlns="http://www.w3.org/2000/svg">
<path fill-rule="evenodd" clip-rule="evenodd" d="M5.5759 0.238644L10.7613 5.42387C11.0796 5.74206 11.0796 6.25795 10.7613 6.57614L5.57589 11.7614C5.25769 12.0795 4.74178 12.0795 4.42357 11.7614C4.10537 11.4432 4.10537 10.9273 4.42357 10.6091L8.21805 6.81478L0.814814 6.81478C0.364804 6.81478 -1.12775e-06 6.44999 -1.04907e-06 6C-9.70395e-07 5.55001 0.364804 5.18522 0.814814 5.18522L8.21805 5.18522L4.42357 1.39092C4.10537 1.07272 4.10537 0.556835 4.42357 0.238644C4.74178 -0.0795469 5.25769 -0.0795468 5.5759 0.238644Z" fill="white"/>
</svg>
