<svg width="48" height="48" viewBox="0 0 48 48" fill="none" xmlns="http://www.w3.org/2000/svg">
<path d="M28.6455 38.505H25.0081C24.4905 38.505 24.0707 38.9246 24.0707 39.4424C24.0707 39.9601 24.4905 40.3798 25.0081 40.3798H28.6455C29.2069 40.3798 29.6637 40.8364 29.6637 41.3978C29.6637 41.9592 29.207 42.4158 28.6455 42.4158H18.8539C17.3821 42.4158 15.9979 41.7669 15.0567 40.6353L12.7151 37.8208C11.4587 36.3105 9.63008 35.4259 7.67352 35.37V29.8325H11.125C12.8271 29.8325 14.4388 30.4835 15.6633 31.6654L20.7171 36.5437C21.0744 36.8886 21.0911 37.4661 20.7542 37.831C20.4109 38.2028 19.8282 38.2271 19.4552 37.8852L15.4874 34.2481C15.1059 33.8983 14.5128 33.924 14.1631 34.3056C13.8132 34.6873 13.839 35.2803 14.2206 35.63L18.1884 39.2672C18.7235 39.7577 19.4007 39.9999 20.0761 39.9999C20.8303 39.9999 21.5822 39.6979 22.1319 39.1025C23.1543 37.9949 23.1038 36.2419 22.0192 35.1949L16.9653 30.3167C15.3895 28.7955 13.3154 27.9577 11.125 27.9577H7.49145C7.13877 27.123 6.31161 26.5356 5.34993 26.5356H0.937404C0.419718 26.5356 0 26.9553 0 27.4731V34.3278C0 34.8454 0.419718 35.2652 0.937404 35.2652C1.45509 35.2652 1.87481 34.8455 1.87481 34.3278V28.4104H5.35002C5.59752 28.4104 5.7988 28.6117 5.7988 28.8591V36.3725C5.7988 36.6199 5.59752 36.8213 5.35002 36.8213H4.37643C3.85874 36.8213 3.43902 37.2409 3.43902 37.7587C3.43902 38.2764 3.85874 38.6961 4.37643 38.6961H5.34993C6.32455 38.6961 7.16033 38.0927 7.50486 37.2401C8.96623 37.2484 10.3386 37.8956 11.2739 39.0198L13.6155 41.8344C14.9141 43.3954 16.8234 44.2906 18.8539 44.2906H28.6455C30.2406 44.2906 31.5384 42.993 31.5384 41.3978C31.5384 39.8027 30.2406 38.505 28.6455 38.505Z" fill="url(#paint0_linear)"/>
<path d="M47.0625 12.3688C46.5448 12.3688 46.1251 12.7884 46.1251 13.3062V19.5898H42.6499C42.4024 19.5898 42.2011 19.3884 42.2011 19.141V11.6276C42.2011 11.3802 42.4024 11.1788 42.6499 11.1788H43.5547C44.0724 11.1788 44.4921 10.7592 44.4921 10.2414C44.4921 9.72371 44.0724 9.30399 43.5547 9.30399H42.6499C41.6753 9.30399 40.8395 9.90737 40.495 10.76C39.0336 10.7517 37.6612 10.1045 36.7259 8.98028L34.3844 6.16581C33.0858 4.60478 31.1764 3.70947 29.1458 3.70947H19.3544C17.7593 3.70947 16.4615 5.00716 16.4615 6.60222C16.4615 8.19728 17.7593 9.49496 19.3544 9.49496H23.3583C23.8759 9.49496 24.2957 9.07534 24.2957 8.55756C24.2957 8.03978 23.8759 7.62015 23.3583 7.62015H19.3544C18.793 7.62015 18.3363 7.1635 18.3363 6.60212C18.3363 6.04084 18.7929 5.58409 19.3544 5.58409H29.1459C30.6179 5.58409 32.002 6.23303 32.9432 7.36459L35.2848 10.1791C36.5412 11.6894 38.3698 12.5739 40.3264 12.63V18.1675H36.8749C35.1728 18.1675 33.5611 17.5165 32.3367 16.3345L27.2828 11.4562C26.9255 11.1113 26.9088 10.5339 27.2457 10.1689C27.589 9.79702 28.1717 9.77284 28.5448 10.1147L32.5126 13.7519C32.8943 14.1016 33.4871 14.076 33.837 13.6943C34.1868 13.3126 34.161 12.7197 33.7794 12.3699L29.8115 8.73287C28.679 7.69478 26.9102 7.76875 25.868 8.89749C24.8456 10.0052 24.8961 11.7582 25.9807 12.8051L31.0346 17.6834C32.6104 19.2045 34.6845 20.0423 36.8749 20.0423H40.5085C40.8612 20.877 41.6883 21.4644 42.65 21.4644H47.0626C47.5803 21.4644 48 21.0448 48 20.527V13.306C47.9999 12.7884 47.5802 12.3688 47.0625 12.3688Z" fill="url(#paint1_linear)"/>
<path d="M30.266 35.5916C30.0528 35.1199 29.4987 34.9094 29.0274 35.1225C28.5526 35.3292 28.3355 35.8816 28.5422 36.3562C28.6958 36.7089 29.0404 36.9195 29.4021 36.9195C29.5271 36.9195 29.654 36.8944 29.7759 36.8413C29.7798 36.8396 29.7922 36.8341 29.796 36.8324C30.2679 36.6193 30.4791 36.0635 30.266 35.5916Z" fill="url(#paint2_linear)"/>
<path d="M32.5962 34.0132C32.2897 33.5969 31.7007 33.5103 31.2839 33.8153C30.8663 34.1212 30.7755 34.7077 31.0814 35.1254C31.265 35.3762 31.5496 35.5091 31.8384 35.5091C32.0306 35.5091 32.2245 35.4502 32.3914 35.3281C32.3929 35.327 32.4017 35.3205 32.4031 35.3195C32.8183 35.012 32.9025 34.4292 32.5962 34.0132Z" fill="url(#paint3_linear)"/>
<path d="M27.6453 36.6439C27.5385 36.139 27.0429 35.8158 26.5376 35.9202C26.0328 36.0205 25.7028 36.5094 25.7996 37.0156C25.8854 37.4647 26.2783 37.7771 26.7192 37.7771C26.7776 37.7771 26.8369 37.7716 26.8962 37.7603C26.9023 37.759 26.9177 37.7559 26.9239 37.7546C27.4301 37.6473 27.7525 37.1502 27.6453 36.6439Z" fill="url(#paint4_linear)"/>
<path d="M34.5544 31.9745C34.1701 31.6278 33.5775 31.6582 33.2306 32.0427C33.226 32.0479 33.2152 32.0601 33.2107 32.0652C32.8725 32.4572 32.9162 33.0491 33.3081 33.3873C33.4852 33.5401 33.7031 33.6149 33.9199 33.6149C34.1803 33.6149 34.4391 33.5071 34.6242 33.2967C34.9694 32.9122 34.9383 32.3207 34.5544 31.9745ZM34.0309 32.7649L33.9267 32.6706L34.0396 32.7724L34.0309 32.7649Z" fill="url(#paint5_linear)"/>
<path d="M36.9404 26.8944C36.445 26.7441 35.9209 27.0267 35.7706 27.5222C35.6184 28.017 35.8961 28.5416 36.3909 28.6938C36.4827 28.7221 36.5755 28.7355 36.6668 28.7355C37.0675 28.7355 37.4385 28.4766 37.5624 28.0736L37.5663 28.0607C37.7165 27.5652 37.4357 27.0446 36.9404 26.8944Z" fill="url(#paint6_linear)"/>
<path d="M38.141 22.0564C38.1389 22.0445 38.1367 22.0326 38.1341 22.0207C38.0283 21.514 37.5318 21.1899 37.0254 21.2956C36.5207 21.4008 36.1962 21.8943 36.2979 22.3989C36.3838 22.8461 36.7758 23.1592 37.2172 23.1592C37.272 23.1592 37.3277 23.1544 37.3835 23.1444C37.8931 23.0531 38.2322 22.566 38.141 22.0564Z" fill="url(#paint7_linear)"/>
<path d="M37.2813 24.0901C36.7673 24.0447 36.3107 24.4258 36.2652 24.9414C36.2644 24.9505 36.2631 24.969 36.2625 24.9781C36.2321 25.4949 36.6264 25.9386 37.1432 25.9689C37.1619 25.9701 37.1805 25.9706 37.1991 25.9706C37.6871 25.9706 38.0973 25.5932 38.1332 25.1017C38.1759 24.5879 37.7955 24.1355 37.2813 24.0901Z" fill="url(#paint8_linear)"/>
<path d="M36.0227 29.5616C35.5727 29.3065 35.0002 29.4646 34.7451 29.9151L34.732 29.9385C34.4852 30.3936 34.6518 30.9667 35.1067 31.2135C35.2499 31.2911 35.4039 31.328 35.5557 31.328C35.8866 31.328 36.2062 31.1525 36.3754 30.8405L35.5605 30.3772L36.376 30.8393C36.6313 30.3889 36.4732 29.8169 36.0227 29.5616Z" fill="url(#paint9_linear)"/>
<path d="M19.0214 11.7092C18.7899 11.246 18.2265 11.0582 17.7638 11.2899L17.7554 11.294C17.2923 11.5256 17.1089 12.0865 17.3404 12.5495C17.5044 12.8776 17.8366 13.0664 18.1811 13.0664C18.323 13.0664 18.467 13.0343 18.6021 12.9668C19.0652 12.7353 19.2528 12.1723 19.0214 11.7092Z" fill="url(#paint10_linear)"/>
<path d="M21.7333 10.9277C21.6113 10.4247 21.1053 10.1155 20.6014 10.2376C20.5971 10.2386 20.5837 10.242 20.5794 10.2431C20.0781 10.3723 19.7744 10.8839 19.9035 11.3852C20.0125 11.8082 20.3919 12.0893 20.809 12.0893C20.8863 12.0893 20.9648 12.0797 21.0432 12.0595C21.5463 11.9375 21.8553 11.4308 21.7333 10.9277Z" fill="url(#paint11_linear)"/>
<path d="M16.5427 13.0611C16.2185 12.6582 15.6283 12.5949 15.225 12.9184L15.8061 13.6539L15.2222 12.9205C14.8172 13.243 14.7503 13.8327 15.0727 14.2377C15.258 14.4702 15.5311 14.5913 15.8068 14.5913C16.0113 14.5913 16.2175 14.5245 16.3901 14.3872L16.4025 14.3772C16.8047 14.0524 16.8669 13.4639 16.5427 13.0611Z" fill="url(#paint12_linear)"/>
<path d="M11.5446 19.7307C11.0451 19.5946 10.5299 19.8889 10.3937 20.3884C10.3913 20.3969 10.3868 20.4147 10.3847 20.4233C10.2628 20.9262 10.5718 21.432 11.0747 21.5542C11.1489 21.5722 11.2232 21.5808 11.2963 21.5808C11.7169 21.5808 12.099 21.2954 12.2055 20.8701C12.334 20.3743 12.0403 19.8659 11.5446 19.7307Z" fill="url(#paint13_linear)"/>
<path d="M10.9474 22.4849C10.4293 22.4561 9.98733 22.8498 9.95733 23.3665C9.95658 23.3786 9.95611 23.3906 9.95573 23.4026C9.94055 23.9198 10.3475 24.3508 10.8648 24.3663C10.8744 24.3665 10.8838 24.3667 10.8932 24.3667C11.3957 24.3667 11.8109 23.968 11.8295 23.4633C11.8529 22.9515 11.4603 22.5147 10.9474 22.4849Z" fill="url(#paint14_linear)"/>
<path d="M12.7244 17.169C12.2658 16.9285 11.6993 17.1052 11.4588 17.5636L11.4436 17.5938C11.2151 18.0582 11.4067 18.619 11.871 18.8476C12.0039 18.9132 12.1448 18.9441 12.2838 18.9441C12.6281 18.9441 12.9595 18.7536 13.1237 18.4255C13.3572 17.9686 13.1798 17.408 12.7244 17.169Z" fill="url(#paint15_linear)"/>
<path d="M14.4173 14.9137C14.019 14.583 13.428 14.6379 13.0973 15.0361C13.0928 15.0416 13.0825 15.0544 13.078 15.0599C12.7566 15.4656 12.8254 16.0541 13.2308 16.3757C13.403 16.5123 13.6083 16.5785 13.8123 16.5785C14.0872 16.5785 14.3599 16.4581 14.545 16.2273C14.8698 15.8291 14.8135 15.2426 14.4173 14.9137Z" fill="url(#paint16_linear)"/>
<path d="M12.0068 26.065C11.9156 25.5554 11.4282 25.2163 10.9189 25.3076C10.4092 25.3989 10.0702 25.8859 10.1614 26.3956L10.1631 26.4047C10.2442 26.8578 10.6377 27.1726 11.0822 27.1726C11.1376 27.1726 11.1937 27.1677 11.2502 27.1576C11.7598 27.0663 12.0982 26.5746 12.0068 26.065Z" fill="url(#paint17_linear)"/>
<path d="M0.937419 38.693C1.45332 38.693 1.87154 38.2747 1.87154 37.7588C1.87154 37.2429 1.45332 36.8247 0.937419 36.8247C0.421517 36.8247 0.0032959 37.2429 0.0032959 37.7588C0.0032959 38.2747 0.421517 38.693 0.937419 38.693Z" fill="url(#paint18_linear)"/>
<path d="M47.0624 11.1754C47.5783 11.1754 47.9965 10.7572 47.9965 10.2413C47.9965 9.72535 47.5783 9.30713 47.0624 9.30713C46.5465 9.30713 46.1283 9.72535 46.1283 10.2413C46.1283 10.7572 46.5465 11.1754 47.0624 11.1754Z" fill="url(#paint19_linear)"/>
<defs>
<linearGradient id="paint0_linear" x1="0" y1="44.2906" x2="31.5384" y2="44.2906" gradientUnits="userSpaceOnUse">
<stop stop-color="#2F80ED"/>
<stop offset="1" stop-color="#56CCF2"/>
</linearGradient>
<linearGradient id="paint1_linear" x1="16.4615" y1="21.4644" x2="48" y2="21.4644" gradientUnits="userSpaceOnUse">
<stop stop-color="#2F80ED"/>
<stop offset="1" stop-color="#56CCF2"/>
</linearGradient>
<linearGradient id="paint2_linear" x1="28.464" y1="36.9195" x2="30.3491" y2="36.9195" gradientUnits="userSpaceOnUse">
<stop stop-color="#2F80ED"/>
<stop offset="1" stop-color="#56CCF2"/>
</linearGradient>
<linearGradient id="paint3_linear" x1="30.9003" y1="35.5091" x2="32.7802" y2="35.5091" gradientUnits="userSpaceOnUse">
<stop stop-color="#2F80ED"/>
<stop offset="1" stop-color="#56CCF2"/>
</linearGradient>
<linearGradient id="paint4_linear" x1="25.7827" y1="37.7771" x2="27.6659" y2="37.7771" gradientUnits="userSpaceOnUse">
<stop stop-color="#2F80ED"/>
<stop offset="1" stop-color="#56CCF2"/>
</linearGradient>
<linearGradient id="paint5_linear" x1="32.983" y1="33.6149" x2="34.864" y2="33.6149" gradientUnits="userSpaceOnUse">
<stop stop-color="#2F80ED"/>
<stop offset="1" stop-color="#56CCF2"/>
</linearGradient>
<linearGradient id="paint6_linear" x1="35.7289" y1="28.7355" x2="37.6068" y2="28.7355" gradientUnits="userSpaceOnUse">
<stop stop-color="#2F80ED"/>
<stop offset="1" stop-color="#56CCF2"/>
</linearGradient>
<linearGradient id="paint7_linear" x1="36.2792" y1="23.1592" x2="38.1558" y2="23.1592" gradientUnits="userSpaceOnUse">
<stop stop-color="#2F80ED"/>
<stop offset="1" stop-color="#56CCF2"/>
</linearGradient>
<linearGradient id="paint8_linear" x1="36.2609" y1="25.9706" x2="38.1365" y2="25.9706" gradientUnits="userSpaceOnUse">
<stop stop-color="#2F80ED"/>
<stop offset="1" stop-color="#56CCF2"/>
</linearGradient>
<linearGradient id="paint9_linear" x1="34.6179" y1="31.328" x2="36.4981" y2="31.328" gradientUnits="userSpaceOnUse">
<stop stop-color="#2F80ED"/>
<stop offset="1" stop-color="#56CCF2"/>
</linearGradient>
<linearGradient id="paint10_linear" x1="17.2404" y1="13.0664" x2="19.1205" y2="13.0664" gradientUnits="userSpaceOnUse">
<stop stop-color="#2F80ED"/>
<stop offset="1" stop-color="#56CCF2"/>
</linearGradient>
<linearGradient id="paint11_linear" x1="19.8738" y1="12.0893" x2="21.7599" y2="12.0893" gradientUnits="userSpaceOnUse">
<stop stop-color="#2F80ED"/>
<stop offset="1" stop-color="#56CCF2"/>
</linearGradient>
<linearGradient id="paint12_linear" x1="14.8687" y1="14.5913" x2="16.7503" y2="14.5913" gradientUnits="userSpaceOnUse">
<stop stop-color="#2F80ED"/>
<stop offset="1" stop-color="#56CCF2"/>
</linearGradient>
<linearGradient id="paint13_linear" x1="10.3581" y1="21.5808" x2="12.2357" y2="21.5808" gradientUnits="userSpaceOnUse">
<stop stop-color="#2F80ED"/>
<stop offset="1" stop-color="#56CCF2"/>
</linearGradient>
<linearGradient id="paint14_linear" x1="9.95532" y1="24.3667" x2="11.8305" y2="24.3667" gradientUnits="userSpaceOnUse">
<stop stop-color="#2F80ED"/>
<stop offset="1" stop-color="#56CCF2"/>
</linearGradient>
<linearGradient id="paint15_linear" x1="11.3472" y1="18.9441" x2="13.2265" y2="18.9441" gradientUnits="userSpaceOnUse">
<stop stop-color="#2F80ED"/>
<stop offset="1" stop-color="#56CCF2"/>
</linearGradient>
<linearGradient id="paint16_linear" x1="12.8755" y1="16.5785" x2="14.7559" y2="16.5785" gradientUnits="userSpaceOnUse">
<stop stop-color="#2F80ED"/>
<stop offset="1" stop-color="#56CCF2"/>
</linearGradient>
<linearGradient id="paint17_linear" x1="10.1465" y1="27.1726" x2="12.0217" y2="27.1726" gradientUnits="userSpaceOnUse">
<stop stop-color="#2F80ED"/>
<stop offset="1" stop-color="#56CCF2"/>
</linearGradient>
<linearGradient id="paint18_linear" x1="0.0032959" y1="38.693" x2="1.87154" y2="38.693" gradientUnits="userSpaceOnUse">
<stop stop-color="#2F80ED"/>
<stop offset="1" stop-color="#56CCF2"/>
</linearGradient>
<linearGradient id="paint19_linear" x1="46.1283" y1="11.1754" x2="47.9965" y2="11.1754" gradientUnits="userSpaceOnUse">
<stop stop-color="#2F80ED"/>
<stop offset="1" stop-color="#56CCF2"/>
</linearGradient>
</defs>
</svg>
