<svg width="36" height="36" viewBox="0 0 36 36" fill="none" xmlns="http://www.w3.org/2000/svg">
<path d="M31.5002 6.53906C31.8886 6.53906 32.2034 6.22427 32.2034 5.83594V2.10938C32.2034 0.946266 31.2571 0 30.094 0H2.10962C0.94651 0 0.000244141 0.946266 0.000244141 2.10938V33.8906C0.000244141 35.0537 0.94651 36 2.10962 36H30.094C31.2571 36 32.2034 35.0537 32.2034 33.8906V31.9219C32.2034 31.5335 31.8886 31.2188 31.5002 31.2188C31.1119 31.2188 30.7971 31.5335 30.7971 31.9219V33.8906C30.7971 34.2783 30.4817 34.5938 30.094 34.5938H2.10962C1.72192 34.5938 1.40649 34.2783 1.40649 33.8906V2.10938C1.40649 1.72167 1.72192 1.40625 2.10962 1.40625H30.094C30.4817 1.40625 30.7971 1.72167 30.7971 2.10938V5.83594C30.7971 6.22427 31.1119 6.53906 31.5002 6.53906Z" fill="white"/>
<path d="M28.1257 3.375H4.078C3.68967 3.375 3.37488 3.68979 3.37488 4.07812V18.7734C3.37488 19.1618 3.68967 19.4766 4.078 19.4766C4.46634 19.4766 4.78113 19.1618 4.78113 18.7734V4.78125H27.4226V5.90625C27.4226 6.29459 27.7375 6.60938 28.1257 6.60938C28.5141 6.60938 28.8288 6.29459 28.8288 5.90625V4.07812C28.8288 3.68979 28.5141 3.375 28.1257 3.375Z" fill="white"/>
<path d="M4.57481 20.8779C4.44403 20.7471 4.26333 20.6719 4.0777 20.6719C3.89278 20.6719 3.71137 20.7471 3.58059 20.8779C3.44981 21.0087 3.37457 21.1901 3.37457 21.375C3.37457 21.5599 3.44981 21.7413 3.58059 21.8721C3.71137 22.0029 3.89278 22.0781 4.0777 22.0781C4.26333 22.0781 4.44403 22.0029 4.57481 21.8721C4.7063 21.7413 4.78083 21.5599 4.78083 21.375C4.78083 21.1901 4.7063 21.0087 4.57481 20.8779Z" fill="white"/>
<path d="M28.1257 29.6719C27.7374 29.6719 27.4226 29.9867 27.4226 30.375V31.2188H4.78113V24.082C4.78113 23.6937 4.46634 23.3789 4.078 23.3789C3.68967 23.3789 3.37488 23.6937 3.37488 24.082V31.9219C3.37488 32.3102 3.68967 32.625 4.078 32.625H28.1257C28.5141 32.625 28.8288 32.3102 28.8288 31.9219V30.375C28.8288 29.9867 28.5141 29.6719 28.1257 29.6719Z" fill="white"/>
<path d="M21.7904 24.8439C21.5158 24.5693 21.0707 24.5693 20.796 24.8439L19.4064 26.2336L18.5426 25.3697C17.9972 24.8244 17.1099 24.8244 16.5645 25.3697L16.0024 25.9318C15.7278 26.2064 15.7278 26.6516 16.0024 26.9262C16.277 27.2008 16.7222 27.2008 16.9968 26.9262L17.5536 26.3695L18.4174 27.2334C18.69 27.506 19.0482 27.6424 19.4064 27.6424C19.7646 27.6424 20.1227 27.506 20.3954 27.2334L21.7904 25.8384C22.065 25.5638 22.065 25.1186 21.7904 24.8439Z" fill="white"/>
<path d="M35.6765 14.7504C35.9864 14.267 36.0789 13.6716 35.9303 13.117C35.7817 12.5623 35.4039 12.093 34.8938 11.8293C34.6726 11.715 34.5372 11.4804 34.5488 11.2318C34.5755 10.6581 34.3579 10.0963 33.9519 9.69029C33.5459 9.28431 32.9843 9.06641 32.4105 9.09341C32.1606 9.1055 31.9272 8.96952 31.8129 8.74839C31.5492 8.23834 31.0799 7.86055 30.5252 7.71191C29.9704 7.5632 29.3752 7.6558 28.8919 7.96567C28.6823 8.1001 28.4114 8.10003 28.2019 7.96567C27.7185 7.65573 27.1232 7.56327 26.5685 7.71191C26.0139 7.86055 25.5446 8.23834 25.2809 8.74839C25.1666 8.96959 24.9314 9.10466 24.6833 9.09341C24.1095 9.06662 23.5479 9.28431 23.1419 9.69029C22.7359 10.0963 22.5183 10.6581 22.545 11.2317C22.5566 11.4804 22.4211 11.715 22.2 11.8293C21.6899 12.093 21.3121 12.5623 21.1635 13.117C21.0925 13.3816 21.0771 13.6554 21.1135 13.922H8.84396C8.45562 13.922 8.14084 14.2368 8.14084 14.6251C8.14084 15.0134 8.45562 15.3282 8.84396 15.3282H21.4727C21.4576 15.3668 21.4401 15.4047 21.4172 15.4404C21.1073 15.9238 21.0148 16.5193 21.1634 17.0739C21.1838 17.15 21.2089 17.2244 21.2377 17.297H8.84375C8.45541 17.297 8.14062 17.6118 8.14062 18.0001C8.14062 18.3884 8.45541 18.7032 8.84375 18.7032H22.503C22.5336 18.7836 22.5489 18.8703 22.5448 18.9591C22.5181 19.5327 22.7357 20.0945 23.1417 20.5006C23.5477 20.9065 24.1093 21.1245 24.6831 21.0974C24.9315 21.0853 25.1664 21.2213 25.2807 21.4425C25.3651 21.6059 25.471 21.7554 25.5937 21.8885V28.4552C25.5937 28.7393 25.7646 28.9954 26.0269 29.1045C26.2891 29.2135 26.5913 29.1541 26.7927 28.9537L28.5468 27.2087L30.3009 28.9537C30.4353 29.0874 30.6145 29.1583 30.7969 29.1583C30.8878 29.1583 30.9795 29.1407 31.0667 29.1044C31.329 28.9954 31.4999 28.7392 31.4999 28.4552V21.8885C31.6226 21.7554 31.7284 21.6058 31.8129 21.4424C31.9272 21.2212 32.162 21.086 32.4105 21.0974C32.9846 21.1245 33.5459 20.9065 33.9519 20.5005C34.3579 20.0944 34.5755 19.5326 34.5488 18.959C34.5372 18.7103 34.6727 18.4758 34.8938 18.3614C35.4039 18.0978 35.7817 17.6285 35.9303 17.0738C36.0789 16.5191 35.9864 15.9238 35.6765 15.4403C35.5421 15.2308 35.5421 14.96 35.6765 14.7504ZM30.0937 26.764L29.0426 25.7184C28.7683 25.4456 28.3252 25.4456 28.0509 25.7184L26.9999 26.764V22.5458C27.4206 22.5656 27.8422 22.4557 28.2018 22.2252C28.4114 22.0907 28.6823 22.0908 28.8918 22.2252C29.2239 22.4381 29.6088 22.5484 29.9971 22.5484C30.0293 22.5484 30.0615 22.5468 30.0937 22.5452V26.764ZM34.5719 16.7099C34.5248 16.8858 34.4097 17.0287 34.248 17.1123C33.5404 17.4782 33.107 18.2287 33.144 19.0245C33.1525 19.2064 33.0862 19.3775 32.9575 19.5063C32.8287 19.635 32.6577 19.7011 32.4758 19.6928C31.6796 19.656 30.9295 20.0891 30.5636 20.7968C30.48 20.9586 30.3371 21.0736 30.1612 21.1207C29.9854 21.1678 29.804 21.1397 29.6508 21.0414C29.3154 20.8264 28.9311 20.7189 28.5467 20.7189C28.1625 20.7189 27.7781 20.8265 27.4427 21.0414C27.2895 21.1396 27.1081 21.1678 26.9323 21.1207C26.7563 21.0736 26.6135 20.9585 26.5298 20.7968C26.164 20.0892 25.414 19.6556 24.6177 19.6928C24.4362 19.7012 24.2647 19.635 24.1359 19.5063C24.0071 19.3775 23.9409 19.2064 23.9494 19.0244C23.9755 18.4628 23.7665 17.9243 23.3929 17.5271C23.3819 17.5151 23.3707 17.5033 23.3589 17.492C23.2106 17.3416 23.0386 17.2123 22.8454 17.1123C22.6837 17.0287 22.5687 16.8859 22.5216 16.7099C22.4745 16.534 22.5026 16.3527 22.6009 16.1995C23.0308 15.5288 23.0308 14.6622 22.6009 13.9915C22.5027 13.8382 22.4745 13.6569 22.5216 13.481C22.5687 13.3051 22.6838 13.1622 22.8455 13.0786C23.5531 12.7127 23.9865 11.9622 23.9495 11.1664C23.941 10.9845 24.0073 10.8135 24.136 10.6847C24.2648 10.5558 24.4362 10.4897 24.6177 10.4981C25.414 10.535 26.1641 10.1018 26.5299 9.39414C26.6135 9.23235 26.7564 9.11732 26.9323 9.07021C27.1082 9.02317 27.2895 9.05122 27.4427 9.14952C28.1135 9.57955 28.9802 9.57955 29.6507 9.14952C29.804 9.05129 29.9852 9.02303 30.1612 9.07021C30.3371 9.11732 30.48 9.23242 30.5636 9.39414C30.9295 10.1018 31.6799 10.5352 32.4758 10.4981C32.6577 10.4898 32.8287 10.5558 32.9575 10.6847C33.0863 10.8135 33.1525 10.9845 33.144 11.1664C33.107 11.9622 33.5403 12.7127 34.2481 13.0786C34.4098 13.1622 34.5248 13.3051 34.5719 13.481C34.619 13.6569 34.5909 13.8382 34.4926 13.9914C34.0627 14.6621 34.0627 15.5288 34.4926 16.1994C34.5909 16.3527 34.6191 16.534 34.5719 16.7099Z" fill="white"/>
<path d="M31.8907 13.1826C31.6161 12.908 31.1709 12.908 30.8963 13.1826L28.5626 15.5164L27.6335 14.5874C27.359 14.3128 26.9137 14.3128 26.6391 14.5874C26.3645 14.862 26.3645 15.3072 26.6391 15.5818L28.0653 17.008C28.2026 17.1453 28.3826 17.214 28.5625 17.214C28.7424 17.214 28.9224 17.1453 29.0597 17.008L31.8907 14.177C32.1653 13.9025 32.1653 13.4573 31.8907 13.1826Z" fill="white"/>
<path d="M8.58329 8.50289C8.45251 8.37211 8.2711 8.29688 8.08618 8.29688C7.90126 8.29688 7.71985 8.37211 7.58907 8.50289C7.45829 8.63367 7.38306 8.81508 7.38306 9C7.38306 9.18492 7.45829 9.36633 7.58907 9.49711C7.71985 9.62789 7.90126 9.70312 8.08618 9.70312C8.2711 9.70312 8.45251 9.62789 8.58329 9.49711C8.71407 9.36633 8.78931 9.18492 8.78931 9C8.78931 8.81508 8.71407 8.63367 8.58329 8.50289Z" fill="white"/>
<path d="M14.1326 8.29688H10.7107C10.3224 8.29688 10.0076 8.61166 10.0076 9C10.0076 9.38834 10.3224 9.70312 10.7107 9.70312H14.1326C14.5209 9.70312 14.8357 9.38834 14.8357 9C14.8357 8.61166 14.5209 8.29688 14.1326 8.29688Z" fill="white"/>
<path d="M21.2933 20.6719H13.255C12.8667 20.6719 12.5519 20.9867 12.5519 21.375C12.5519 21.7633 12.8667 22.0781 13.255 22.0781H21.2932C21.6816 22.0781 21.9964 21.7633 21.9964 21.375C21.9964 20.9867 21.6817 20.6719 21.2933 20.6719Z" fill="white"/>
</svg>
