<svg width="48" height="48" viewBox="0 0 48 48" fill="none" xmlns="http://www.w3.org/2000/svg">
<path d="M24 38.0625C23.4825 38.0625 23.0625 38.4825 23.0625 39C23.0625 39.5175 23.4825 39.9375 24 39.9375C24.5175 39.9375 24.9375 39.5175 24.9375 39C24.9375 38.4825 24.5175 38.0625 24 38.0625Z" fill="url(#paint0_linear)"/>
<path d="M47.0625 30.5625H46.125V19.3125H47.0625C47.5803 19.3125 48 18.8927 48 18.375C48 17.8573 47.5803 17.4375 47.0625 17.4375C44.5112 17.4375 38.3907 17.4375 36.1875 17.4375V12.1875C36.1875 10.6367 34.9258 9.375 33.375 9.375H29.9286C30.3422 8.50313 30.5625 7.54462 30.5625 6.5625C30.5625 2.94394 27.6186 0 24 0C20.3814 0 17.4375 2.94394 17.4375 6.5625C17.4375 7.54462 17.6578 8.50313 18.0714 9.375H14.625C13.0742 9.375 11.8125 10.6367 11.8125 12.1875V17.4375C9.60262 17.4375 3.46875 17.4375 0.9375 17.4375C0.419719 17.4375 0 17.8573 0 18.375C0 18.8927 0.419719 19.3125 0.9375 19.3125H1.875V30.5625H0.9375C0.419719 30.5625 0 30.9823 0 31.5C0 32.0177 0.419719 32.4375 0.9375 32.4375H1.875V47.0625C1.875 47.5802 2.29472 48 2.8125 48C18.4578 48 29.3705 48 45.1875 48C45.7053 48 46.125 47.5802 46.125 47.0625V32.4375H47.0625C47.5803 32.4375 48 32.0177 48 31.5C48 30.9823 47.5803 30.5625 47.0625 30.5625ZM11.8125 46.125H3.75V32.4375H11.8125V46.125ZM11.8125 30.5625H3.75V19.3125H11.8125V30.5625ZM24 1.875C26.5847 1.875 28.6875 3.97781 28.6875 6.5625C28.6875 7.70616 28.2715 8.80631 27.5157 9.66375C27.5083 9.67153 27.5011 9.67931 27.494 9.68728C26.6052 10.6805 25.3317 11.25 24 11.25C22.6683 11.25 21.3948 10.6805 20.506 9.68728C20.4989 9.67931 20.4917 9.67153 20.4843 9.66375C19.7285 8.80631 19.3125 7.70616 19.3125 6.5625C19.3125 3.97781 21.4153 1.875 24 1.875ZM28.6875 46.125H24.9375V42.75C24.9375 42.2323 24.5178 41.8125 24 41.8125C23.4822 41.8125 23.0625 42.2323 23.0625 42.75V46.125H19.3125V37.125C19.3125 36.6081 19.7331 36.1875 20.25 36.1875H27.75C28.2669 36.1875 28.6875 36.6081 28.6875 37.125V46.125ZM34.3125 18.375V46.125H30.5625V37.125C30.5625 35.5742 29.3008 34.3125 27.75 34.3125H20.25C18.6992 34.3125 17.4375 35.5742 17.4375 37.125V46.125H13.6875V18.375V12.1875C13.6875 11.6706 14.1081 11.25 14.625 11.25H19.4091C20.631 12.446 22.2804 13.125 24 13.125C25.7196 13.125 27.369 12.446 28.5909 11.25H33.375C33.8919 11.25 34.3125 11.6706 34.3125 12.1875V18.375ZM44.25 46.125H36.1875V32.4375H44.25V46.125ZM44.25 30.5625H36.1875V19.3125H44.25V30.5625Z" fill="url(#paint1_linear)"/>
<path d="M41.4375 21.1875H39C38.4822 21.1875 38.0625 21.6073 38.0625 22.125C38.0625 22.6427 38.4822 23.0625 39 23.0625H41.4375C41.9553 23.0625 42.375 22.6427 42.375 22.125C42.375 21.6073 41.9553 21.1875 41.4375 21.1875Z" fill="url(#paint2_linear)"/>
<path d="M41.4375 26.8125H39C38.4822 26.8125 38.0625 27.2323 38.0625 27.75C38.0625 28.2677 38.4822 28.6875 39 28.6875H41.4375C41.9553 28.6875 42.375 28.2677 42.375 27.75C42.375 27.2323 41.9553 26.8125 41.4375 26.8125Z" fill="url(#paint3_linear)"/>
<path d="M41.4375 34.3125H39C38.4822 34.3125 38.0625 34.7323 38.0625 35.25C38.0625 35.7677 38.4822 36.1875 39 36.1875H41.4375C41.9553 36.1875 42.375 35.7677 42.375 35.25C42.375 34.7323 41.9553 34.3125 41.4375 34.3125Z" fill="url(#paint4_linear)"/>
<path d="M41.4375 39.9375H39C38.4822 39.9375 38.0625 40.3573 38.0625 40.875C38.0625 41.3927 38.4822 41.8125 39 41.8125H41.4375C41.9553 41.8125 42.375 41.3927 42.375 40.875C42.375 40.3573 41.9553 39.9375 41.4375 39.9375Z" fill="url(#paint5_linear)"/>
<path d="M9 39.9375H6.5625C6.04472 39.9375 5.625 40.3573 5.625 40.875C5.625 41.3927 6.04472 41.8125 6.5625 41.8125H9C9.51778 41.8125 9.9375 41.3927 9.9375 40.875C9.9375 40.3573 9.51778 39.9375 9 39.9375Z" fill="url(#paint6_linear)"/>
<path d="M9 34.3125H6.5625C6.04472 34.3125 5.625 34.7323 5.625 35.25C5.625 35.7677 6.04472 36.1875 6.5625 36.1875H9C9.51778 36.1875 9.9375 35.7677 9.9375 35.25C9.9375 34.7323 9.51778 34.3125 9 34.3125Z" fill="url(#paint7_linear)"/>
<path d="M9 26.8125H6.5625C6.04472 26.8125 5.625 27.2323 5.625 27.75C5.625 28.2677 6.04472 28.6875 6.5625 28.6875H9C9.51778 28.6875 9.9375 28.2677 9.9375 27.75C9.9375 27.2323 9.51778 26.8125 9 26.8125Z" fill="url(#paint8_linear)"/>
<path d="M9 21.1875H6.5625C6.04472 21.1875 5.625 21.6073 5.625 22.125C5.625 22.6427 6.04472 23.0625 6.5625 23.0625H9C9.51778 23.0625 9.9375 22.6427 9.9375 22.125C9.9375 21.6073 9.51778 21.1875 9 21.1875Z" fill="url(#paint9_linear)"/>
<path d="M18.375 17.4375H16.5C15.9822 17.4375 15.5625 17.8573 15.5625 18.375C15.5625 18.8927 15.9822 19.3125 16.5 19.3125H18.375C18.8928 19.3125 19.3125 18.8927 19.3125 18.375C19.3125 17.8573 18.8928 17.4375 18.375 17.4375Z" fill="url(#paint10_linear)"/>
<path d="M25.875 17.4375H22.125C21.6072 17.4375 21.1875 17.8573 21.1875 18.375C21.1875 18.8927 21.6072 19.3125 22.125 19.3125H25.875C26.3928 19.3125 26.8125 18.8927 26.8125 18.375C26.8125 17.8573 26.3928 17.4375 25.875 17.4375Z" fill="url(#paint11_linear)"/>
<path d="M31.5 17.4375H29.625C29.1072 17.4375 28.6875 17.8573 28.6875 18.375C28.6875 18.8927 29.1072 19.3125 29.625 19.3125H31.5C32.0178 19.3125 32.4375 18.8927 32.4375 18.375C32.4375 17.8573 32.0178 17.4375 31.5 17.4375Z" fill="url(#paint12_linear)"/>
<path d="M18.375 23.0625H16.5C15.9822 23.0625 15.5625 23.4823 15.5625 24C15.5625 24.5177 15.9822 24.9375 16.5 24.9375H18.375C18.8928 24.9375 19.3125 24.5177 19.3125 24C19.3125 23.4823 18.8928 23.0625 18.375 23.0625Z" fill="url(#paint13_linear)"/>
<path d="M25.875 23.0625H22.125C21.6072 23.0625 21.1875 23.4823 21.1875 24C21.1875 24.5177 21.6072 24.9375 22.125 24.9375H25.875C26.3928 24.9375 26.8125 24.5177 26.8125 24C26.8125 23.4823 26.3928 23.0625 25.875 23.0625Z" fill="url(#paint14_linear)"/>
<path d="M31.5 23.0625H29.625C29.1072 23.0625 28.6875 23.4823 28.6875 24C28.6875 24.5177 29.1072 24.9375 29.625 24.9375H31.5C32.0178 24.9375 32.4375 24.5177 32.4375 24C32.4375 23.4823 32.0178 23.0625 31.5 23.0625Z" fill="url(#paint15_linear)"/>
<path d="M18.375 28.6875H16.5C15.9822 28.6875 15.5625 29.1073 15.5625 29.625C15.5625 30.1427 15.9822 30.5625 16.5 30.5625H18.375C18.8928 30.5625 19.3125 30.1427 19.3125 29.625C19.3125 29.1073 18.8928 28.6875 18.375 28.6875Z" fill="url(#paint16_linear)"/>
<path d="M25.875 28.6875H22.125C21.6072 28.6875 21.1875 29.1073 21.1875 29.625C21.1875 30.1427 21.6072 30.5625 22.125 30.5625H25.875C26.3928 30.5625 26.8125 30.1427 26.8125 29.625C26.8125 29.1073 26.3928 28.6875 25.875 28.6875Z" fill="url(#paint17_linear)"/>
<path d="M31.5 28.6875H29.625C29.1072 28.6875 28.6875 29.1073 28.6875 29.625C28.6875 30.1427 29.1072 30.5625 29.625 30.5625H31.5C32.0178 30.5625 32.4375 30.1427 32.4375 29.625C32.4375 29.1073 32.0178 28.6875 31.5 28.6875Z" fill="url(#paint18_linear)"/>
<path d="M25.875 5.625H24.9375V4.6875C24.9375 4.16981 24.5178 3.75 24 3.75C23.4822 3.75 23.0625 4.16981 23.0625 4.6875V5.625H22.125C21.6072 5.625 21.1875 6.04481 21.1875 6.5625C21.1875 7.08019 21.6072 7.5 22.125 7.5H23.0625V8.4375C23.0625 8.95519 23.4822 9.375 24 9.375C24.5178 9.375 24.9375 8.95519 24.9375 8.4375V7.5H25.875C26.3928 7.5 26.8125 7.08019 26.8125 6.5625C26.8125 6.04481 26.3928 5.625 25.875 5.625Z" fill="url(#paint19_linear)"/>
<defs>
<linearGradient id="paint0_linear" x1="23.0625" y1="39.9375" x2="24.9375" y2="39.9375" gradientUnits="userSpaceOnUse">
<stop stop-color="#2F80ED"/>
<stop offset="1" stop-color="#56CCF2"/>
</linearGradient>
<linearGradient id="paint1_linear" x1="0" y1="48" x2="48" y2="48" gradientUnits="userSpaceOnUse">
<stop stop-color="#2F80ED"/>
<stop offset="1" stop-color="#56CCF2"/>
</linearGradient>
<linearGradient id="paint2_linear" x1="38.0625" y1="23.0625" x2="42.375" y2="23.0625" gradientUnits="userSpaceOnUse">
<stop stop-color="#2F80ED"/>
<stop offset="1" stop-color="#56CCF2"/>
</linearGradient>
<linearGradient id="paint3_linear" x1="38.0625" y1="28.6875" x2="42.375" y2="28.6875" gradientUnits="userSpaceOnUse">
<stop stop-color="#2F80ED"/>
<stop offset="1" stop-color="#56CCF2"/>
</linearGradient>
<linearGradient id="paint4_linear" x1="38.0625" y1="36.1875" x2="42.375" y2="36.1875" gradientUnits="userSpaceOnUse">
<stop stop-color="#2F80ED"/>
<stop offset="1" stop-color="#56CCF2"/>
</linearGradient>
<linearGradient id="paint5_linear" x1="38.0625" y1="41.8125" x2="42.375" y2="41.8125" gradientUnits="userSpaceOnUse">
<stop stop-color="#2F80ED"/>
<stop offset="1" stop-color="#56CCF2"/>
</linearGradient>
<linearGradient id="paint6_linear" x1="5.625" y1="41.8125" x2="9.9375" y2="41.8125" gradientUnits="userSpaceOnUse">
<stop stop-color="#2F80ED"/>
<stop offset="1" stop-color="#56CCF2"/>
</linearGradient>
<linearGradient id="paint7_linear" x1="5.625" y1="36.1875" x2="9.9375" y2="36.1875" gradientUnits="userSpaceOnUse">
<stop stop-color="#2F80ED"/>
<stop offset="1" stop-color="#56CCF2"/>
</linearGradient>
<linearGradient id="paint8_linear" x1="5.625" y1="28.6875" x2="9.9375" y2="28.6875" gradientUnits="userSpaceOnUse">
<stop stop-color="#2F80ED"/>
<stop offset="1" stop-color="#56CCF2"/>
</linearGradient>
<linearGradient id="paint9_linear" x1="5.625" y1="23.0625" x2="9.9375" y2="23.0625" gradientUnits="userSpaceOnUse">
<stop stop-color="#2F80ED"/>
<stop offset="1" stop-color="#56CCF2"/>
</linearGradient>
<linearGradient id="paint10_linear" x1="15.5625" y1="19.3125" x2="19.3125" y2="19.3125" gradientUnits="userSpaceOnUse">
<stop stop-color="#2F80ED"/>
<stop offset="1" stop-color="#56CCF2"/>
</linearGradient>
<linearGradient id="paint11_linear" x1="21.1875" y1="19.3125" x2="26.8125" y2="19.3125" gradientUnits="userSpaceOnUse">
<stop stop-color="#2F80ED"/>
<stop offset="1" stop-color="#56CCF2"/>
</linearGradient>
<linearGradient id="paint12_linear" x1="28.6875" y1="19.3125" x2="32.4375" y2="19.3125" gradientUnits="userSpaceOnUse">
<stop stop-color="#2F80ED"/>
<stop offset="1" stop-color="#56CCF2"/>
</linearGradient>
<linearGradient id="paint13_linear" x1="15.5625" y1="24.9375" x2="19.3125" y2="24.9375" gradientUnits="userSpaceOnUse">
<stop stop-color="#2F80ED"/>
<stop offset="1" stop-color="#56CCF2"/>
</linearGradient>
<linearGradient id="paint14_linear" x1="21.1875" y1="24.9375" x2="26.8125" y2="24.9375" gradientUnits="userSpaceOnUse">
<stop stop-color="#2F80ED"/>
<stop offset="1" stop-color="#56CCF2"/>
</linearGradient>
<linearGradient id="paint15_linear" x1="28.6875" y1="24.9375" x2="32.4375" y2="24.9375" gradientUnits="userSpaceOnUse">
<stop stop-color="#2F80ED"/>
<stop offset="1" stop-color="#56CCF2"/>
</linearGradient>
<linearGradient id="paint16_linear" x1="15.5625" y1="30.5625" x2="19.3125" y2="30.5625" gradientUnits="userSpaceOnUse">
<stop stop-color="#2F80ED"/>
<stop offset="1" stop-color="#56CCF2"/>
</linearGradient>
<linearGradient id="paint17_linear" x1="21.1875" y1="30.5625" x2="26.8125" y2="30.5625" gradientUnits="userSpaceOnUse">
<stop stop-color="#2F80ED"/>
<stop offset="1" stop-color="#56CCF2"/>
</linearGradient>
<linearGradient id="paint18_linear" x1="28.6875" y1="30.5625" x2="32.4375" y2="30.5625" gradientUnits="userSpaceOnUse">
<stop stop-color="#2F80ED"/>
<stop offset="1" stop-color="#56CCF2"/>
</linearGradient>
<linearGradient id="paint19_linear" x1="21.1875" y1="9.375" x2="26.8125" y2="9.375" gradientUnits="userSpaceOnUse">
<stop stop-color="#2F80ED"/>
<stop offset="1" stop-color="#56CCF2"/>
</linearGradient>
</defs>
</svg>
