<svg width="36" height="36" viewBox="0 0 36 36" fill="none" xmlns="http://www.w3.org/2000/svg">
<path d="M30.4862 14.3113V12.1525V3.88947C30.4862 2.72988 29.9747 1.6399 29.0829 0.898942C28.191 0.157919 27.0257 -0.144776 25.8858 0.0673564C25.8718 0.069958 25.8579 0.0729814 25.8441 0.076497C25.7852 0.0911923 19.9294 1.54912 17.9999 1.54912C16.0713 1.54912 10.2147 0.0911923 10.1559 0.076497C10.1421 0.0729814 10.1282 0.069958 10.1142 0.0673564C8.97433 -0.145128 7.80904 0.157919 6.91713 0.898872C6.02528 1.6399 5.51376 2.72981 5.51376 3.88954V12.3766V14.3113C1.92304 15.4346 0.0285416 16.9634 0.0285416 18.7482C0.0285416 20.5386 1.94857 22.0805 5.58119 23.2072C8.90831 24.2392 13.3187 24.8075 18 24.8075C22.6813 24.8075 27.0918 24.2392 30.4189 23.2072C34.0514 22.0805 35.9715 20.5386 35.9715 18.7482C35.9714 16.9634 34.0769 15.4346 30.4862 14.3113ZM6.92008 10.7457C9.98177 11.4772 13.7364 11.8765 17.6136 11.8765C19.9643 11.8765 22.2465 11.7342 24.3968 11.4535C24.7818 11.4032 25.0533 11.0503 25.003 10.6653C24.9527 10.2802 24.5998 10.0081 24.2148 10.059C22.1246 10.3319 19.9036 10.4702 17.6136 10.4702C13.7017 10.4702 9.93121 10.0552 6.92008 9.2977V3.88947C6.92001 3.14922 7.24654 2.45348 7.81579 1.98049C8.37991 1.51186 9.11538 1.31744 9.83692 1.44625C10.2994 1.56136 15.9422 2.95537 18 2.95537C20.0577 2.95537 25.7006 1.56143 26.163 1.44625C26.8844 1.31758 27.62 1.51179 28.1841 1.98049C28.7534 2.45341 29.0798 3.14922 29.0798 3.8894V11.6271C25.9514 12.5177 21.9068 13.0061 17.6136 13.0061C13.7014 13.0061 9.93093 12.5911 6.92001 11.8337V10.7457H6.92008ZM6.92001 14.8332V13.2819C9.98135 14.0133 13.7362 14.4124 17.6136 14.4124C21.8595 14.4124 25.8858 13.9443 29.0798 13.0866V14.1777C26.0212 14.9844 22.1286 15.428 18.0847 15.428C15.7942 15.428 13.5732 15.2896 11.4836 15.0168C11.0984 14.9658 10.7456 15.2379 10.6954 15.6229C10.6451 16.008 10.9165 16.3609 11.3015 16.4112C13.4513 16.6918 15.7335 16.8342 18.0847 16.8342C22.0904 16.8342 25.9651 16.4081 29.0798 15.6298V16.5206C25.9516 17.4111 21.9066 17.8991 17.6136 17.8991C13.7015 17.8991 9.93086 17.4844 6.92001 16.7269V14.8332ZM30.0023 21.864C26.8063 22.8554 22.5438 23.4012 18 23.4012C13.4562 23.4012 9.19371 22.8553 5.99779 21.864C3.18332 20.991 1.43479 19.7971 1.43479 18.7483C1.43479 17.752 2.97442 16.6489 5.51383 15.7901V17.2695C5.51383 17.4082 5.55447 17.5394 5.62577 17.6501C5.71746 17.7924 5.85984 17.9009 6.03182 17.9479C8.03643 18.495 10.3949 18.8885 12.9222 19.1067C13.1749 19.1285 13.4293 19.1486 13.6852 19.1669C14.197 19.2035 14.7149 19.2329 15.2373 19.2551C16.0208 19.2885 16.8146 19.3054 17.6136 19.3054C22.2738 19.3054 26.6692 18.7415 29.9901 17.7176C30.2849 17.6267 30.4861 17.3542 30.4861 17.0456V15.7901C33.0255 16.6489 34.5652 17.7521 34.5652 18.7483C34.5651 19.7971 32.8167 20.991 30.0023 21.864Z" fill="white"/>
<path d="M27.7797 10.1571C27.7706 10.112 27.7573 10.0677 27.7397 10.0249C27.7221 9.98263 27.7002 9.94185 27.6749 9.90388C27.6497 9.8652 27.6202 9.82934 27.5878 9.797C27.5555 9.76466 27.5195 9.73513 27.4809 9.70981C27.4429 9.68457 27.4021 9.6627 27.3593 9.64513C27.317 9.62755 27.2728 9.61349 27.2278 9.60505C26.9993 9.55871 26.7567 9.63388 26.5936 9.797C26.5613 9.82934 26.5317 9.8652 26.5065 9.90388C26.4812 9.94185 26.4594 9.98263 26.4418 10.0249C26.4242 10.0677 26.4101 10.112 26.401 10.1571C26.3918 10.2021 26.3876 10.2485 26.3876 10.2942C26.3876 10.3398 26.3919 10.3862 26.401 10.4312C26.4101 10.4762 26.4242 10.5205 26.4418 10.5627C26.4594 10.6056 26.4812 10.6464 26.5065 10.6843C26.5317 10.723 26.5613 10.7588 26.5936 10.7912C26.6259 10.8236 26.6619 10.8531 26.7005 10.8791C26.7384 10.9038 26.7792 10.9255 26.8214 10.9431C26.8643 10.9607 26.9086 10.9741 26.9536 10.9832C26.9987 10.9923 27.045 10.9972 27.0907 10.9972C27.1364 10.9972 27.1828 10.9923 27.2278 10.9832C27.2728 10.974 27.3171 10.9607 27.3593 10.9431C27.4021 10.9255 27.4429 10.9038 27.4809 10.8791C27.5195 10.8531 27.5554 10.8236 27.5878 10.7912C27.6202 10.7589 27.6497 10.723 27.6749 10.6843C27.7002 10.6464 27.7221 10.6056 27.7397 10.5627C27.7573 10.5205 27.7706 10.4762 27.7797 10.4312C27.7888 10.3862 27.7938 10.3398 27.7938 10.2942C27.7938 10.2485 27.7888 10.202 27.7797 10.1571Z" fill="white"/>
<path d="M9.29742 15.1148C9.28807 15.0698 9.27478 15.0255 9.2572 14.9834C9.23962 14.9405 9.21776 14.8998 9.19251 14.8617C9.1665 14.823 9.13697 14.7871 9.10462 14.7548C9.07228 14.7225 9.03642 14.693 8.99768 14.6677C8.95971 14.6417 8.91893 14.6205 8.87674 14.603C8.83385 14.5854 8.78955 14.5714 8.74526 14.563C8.65455 14.5446 8.56104 14.5446 8.47033 14.563C8.42533 14.5714 8.38104 14.5854 8.33885 14.603C8.29603 14.6205 8.25525 14.6417 8.21728 14.6677C8.17861 14.693 8.14275 14.7225 8.11033 14.7548C8.07799 14.7872 8.04846 14.823 8.02322 14.8617C7.9979 14.8997 7.97611 14.9405 7.95853 14.9834C7.94095 15.0256 7.92759 15.0698 7.91845 15.1148C7.90931 15.1598 7.90439 15.2062 7.90439 15.252C7.90439 15.4369 7.97962 15.6183 8.1104 15.7491C8.14282 15.7814 8.17868 15.8109 8.21735 15.8362C8.25532 15.8615 8.2961 15.8833 8.33892 15.9009C8.38118 15.9184 8.42547 15.9325 8.4704 15.9409C8.51547 15.9501 8.56188 15.955 8.60751 15.955C8.65322 15.955 8.69969 15.9501 8.74462 15.9409C8.78962 15.9325 8.83385 15.9184 8.87681 15.9009C8.919 15.8833 8.95978 15.8615 8.99775 15.8362C9.03649 15.8109 9.07235 15.7814 9.10469 15.7491C9.2354 15.6183 9.31071 15.4369 9.31071 15.252C9.31071 15.2062 9.30649 15.1598 9.29742 15.1148Z" fill="white"/>
<path d="M28.3946 26.7186H7.60535C5.91883 26.7186 4.54675 28.0907 4.54675 29.7772V32.8007C4.54675 34.5648 5.9819 35.9999 7.74597 35.9999H12.3029C15.129 35.9999 17.4282 33.7008 17.4282 30.8747V28.1249H18.572V30.8747C18.572 33.7007 20.8711 35.9999 23.6972 35.9999H28.2542C30.0183 35.9999 31.4535 34.5648 31.4535 32.8007V29.7772C31.4533 28.0907 30.0812 26.7186 28.3946 26.7186ZM12.3029 34.5937H7.7459C6.75724 34.5937 5.95293 33.7894 5.95293 32.8007V29.7772C5.95293 28.8661 6.69417 28.1249 7.60528 28.1249H16.0218V30.8747H16.0218C16.0218 32.9253 14.3535 34.5937 12.3029 34.5937ZM28.254 34.5937H23.697C21.6464 34.5937 19.978 32.9253 19.978 30.8747V28.1249H28.3945C29.3056 28.1249 30.0468 28.8661 30.0468 29.7772V32.8007H30.0469C30.0471 33.7894 29.2427 34.5937 28.254 34.5937Z" fill="white"/>
<path d="M10.2434 28.843C9.96891 28.5685 9.52376 28.5685 9.24912 28.843L6.97564 31.1164C6.70107 31.391 6.70114 31.8362 6.97571 32.1109C7.11296 32.2481 7.29296 32.3168 7.47282 32.3168C7.65282 32.3168 7.83275 32.2481 7.97 32.1109L10.2435 29.8374C10.518 29.5628 10.518 29.1176 10.2434 28.843Z" fill="white"/>
<path d="M24.4738 28.843C24.1993 28.5685 23.754 28.5685 23.4794 28.843L21.206 31.1164C20.9314 31.391 20.9314 31.8362 21.206 32.1109C21.3433 32.2481 21.5232 32.3168 21.7032 32.3168C21.8831 32.3168 22.063 32.2481 22.2003 32.1109L24.4738 29.8374C24.7483 29.5628 24.7483 29.1176 24.4738 28.843Z" fill="white"/>
</svg>
