<svg width="48" height="48" viewBox="0 0 48 48" fill="none" xmlns="http://www.w3.org/2000/svg">
<path d="M46.75 0H1.25C0.732219 0 0.3125 0.419719 0.3125 0.9375V47.0625C0.3125 47.5803 0.732219 48 1.25 48H46.75C47.2678 48 47.6875 47.5803 47.6875 47.0625V0.9375C47.6875 0.419719 47.2678 0 46.75 0ZM14.3113 14.1484C14.5108 13.9705 14.625 13.7159 14.625 13.4485V1.875H20.25V13.4485C20.25 13.7159 20.3641 13.9704 20.5637 14.1484C22.1986 15.6057 23.6375 18.065 24.4127 20.7267C24.5533 21.2097 24.4961 21.7192 24.2513 22.1612C23.8027 22.9717 22.4425 23.4474 21.553 23.2031C20.6361 22.326 19.5537 21.75 17.4375 21.75C15.3429 21.75 14.278 22.3197 13.3902 23.1895C12.7258 23.8405 10.9697 22.836 10.6303 22.2416C10.3709 21.7872 10.3082 21.2595 10.4539 20.7558C11.2269 18.0825 12.6689 15.6125 14.3113 14.1484ZM20.25 35.0049V46.125H14.625V35.0035C14.625 34.76 14.5302 34.526 14.3607 34.351C13.1164 33.0673 11.8885 31.0462 10.992 28.806C10.9691 28.7487 11.0347 28.7085 11.0839 28.7173C11.663 28.8219 12.2552 28.875 12.8438 28.875C15.1035 28.875 16.2161 28.2979 17.1185 27.417C17.2058 27.3323 17.733 27.3367 17.822 27.4218C18.7389 28.2989 19.8213 28.8749 21.9375 28.8749C22.5498 28.8749 23.1797 28.8108 23.8097 28.6842C23.8608 28.674 23.9179 28.7182 23.8963 28.7723C22.9994 31.0271 21.7668 33.0609 20.5145 34.3522C20.3448 34.5272 20.25 34.7613 20.25 35.0049ZM45.8125 46.125H31.625V36.75H45.8125V46.125ZM45.8125 34.875H30.6875C30.1697 34.875 29.75 35.2947 29.75 35.8125V46.125H22.125V35.3759C23.9152 33.4072 25.0869 30.8524 25.6386 29.4654C25.9011 28.8054 25.7812 28.056 25.3255 27.5097C24.4166 26.42 23.128 27 21.9375 27C20.1912 27 19.5851 26.5359 19.024 25.9748C18.3683 25.3202 16.5738 25.2869 15.9148 25.9686C15.3499 26.5529 14.7651 27 12.8438 27C11.6993 27 10.426 26.4851 9.54834 27.5609C9.09703 28.114 8.98584 28.8399 9.25116 29.5025C9.80241 30.88 10.9715 33.4175 12.75 35.3743V46.125H2.1875V1.875H12.75V13.0407C10.9878 14.7499 9.47156 17.4034 8.65275 20.235C8.0775 22.2243 9.28922 24.4111 11.2949 24.9271C12.1518 25.1476 13.8712 25.3857 14.5964 24.6358C15.131 24.0828 15.7137 23.625 17.4375 23.625C19.1838 23.625 19.7899 24.089 20.3511 24.6502C21.1249 25.4226 22.7044 25.1399 23.6391 24.8683C25.598 24.2991 26.7839 22.1632 26.2129 20.2025C25.392 17.3837 23.8792 14.7423 22.125 13.0406V1.875H45.8125V34.875Z" fill="url(#paint0_linear)"/>
<defs>
<linearGradient id="paint0_linear" x1="4.3125" y1="48" x2="43.6875" y2="48" gradientUnits="userSpaceOnUse">
<stop stop-color="#2F80ED"/>
<stop offset="1" stop-color="#56CCF2"/>
</linearGradient>
</defs>
</svg>
