<svg width="36" height="36" viewBox="0 0 36 36" fill="none" xmlns="http://www.w3.org/2000/svg">
<path d="M32.8894 6.19449C32.7579 6.063 32.5772 5.9884 32.3922 5.9884C32.2066 5.9884 32.0259 6.063 31.8943 6.19449C31.7636 6.3252 31.689 6.50597 31.689 6.6916C31.689 6.87652 31.7636 7.058 31.8943 7.18878C32.0258 7.31956 32.2065 7.39479 32.3922 7.39479C32.5771 7.39479 32.7579 7.31963 32.8894 7.18878C33.0202 7.058 33.0947 6.87659 33.0947 6.6916C33.0947 6.50597 33.0202 6.3252 32.8894 6.19449Z" fill="white"/>
<path d="M16.7394 22.7549C16.608 22.6234 16.4272 22.5488 16.2422 22.5488C16.0566 22.5488 15.8758 22.6234 15.7443 22.7549C15.6136 22.8856 15.539 23.0664 15.539 23.252C15.539 23.4369 15.6136 23.6184 15.7443 23.7492C15.8758 23.88 16.0565 23.9552 16.2422 23.9552C16.4271 23.9552 16.6079 23.8801 16.7394 23.7492C16.8702 23.6184 16.9447 23.437 16.9447 23.252C16.9448 23.0664 16.8702 22.8856 16.7394 22.7549Z" fill="white"/>
<path d="M34.5926 8.52978C34.4006 8.19214 33.9711 8.07415 33.6337 8.26611C33.2961 8.45806 33.1781 8.88739 33.3701 9.22496C35.4588 12.8979 34.8282 17.5526 31.8366 20.5442L31.3034 21.0774C31.1746 20.7394 30.975 20.4224 30.7031 20.1505L23.4781 12.9256C23.9506 12.6931 24.3872 12.383 24.7705 11.9997L26.1562 10.6139C26.4307 10.3393 26.4307 9.89405 26.1562 9.61948C25.8815 9.34491 25.4364 9.34491 25.1617 9.61948L23.776 11.0053C23.1249 11.6562 22.2595 12.0147 21.3389 12.0147H18.5688C18.3823 12.0147 18.2035 12.0889 18.0715 12.2207L15.9509 14.3413C15.3212 14.9711 14.2965 14.9711 13.6668 14.3413C13.037 13.7116 13.037 12.6869 13.6668 12.0572L18.5082 7.21585C21.4669 4.2571 26.0859 3.60643 29.7404 5.63354C30.08 5.82176 30.5081 5.69935 30.6965 5.35967C30.8848 5.02006 30.7622 4.592 30.4226 4.40363C28.4069 3.28573 26.032 2.83833 23.735 3.14426C21.5854 3.43051 19.6179 4.33058 18.0051 5.75876C16.0237 4.00229 13.5014 3.04175 10.8309 3.04175C7.93786 3.04175 5.21803 4.16837 3.17229 6.21404C1.12655 8.25971 0 10.9797 0 13.8728C0 16.7658 1.12662 19.4857 3.17229 21.5314L3.4373 21.7964C3.48342 21.8425 3.53461 21.8802 3.58868 21.9107C3.63572 22.5191 3.8906 23.1142 4.35488 23.5784C4.8716 24.0951 5.54998 24.3533 6.22856 24.3533C6.26379 24.3533 6.29909 24.3521 6.33431 24.3507C6.33291 24.3863 6.33171 24.4219 6.33171 24.4577C6.33171 25.1654 6.60734 25.8309 7.10782 26.3314C7.62455 26.848 8.30292 27.1063 8.98151 27.1062C9.01673 27.1062 9.05203 27.1051 9.08726 27.1037C9.08585 27.1392 9.08466 27.1748 9.08466 27.2106C9.08466 27.9184 9.36028 28.5838 9.86084 29.0843C10.3775 29.6009 11.056 29.8591 11.7345 29.8591C11.7702 29.8591 11.8058 29.858 11.8415 29.8566C11.8129 30.5704 12.0701 31.2936 12.6138 31.8374C13.1143 32.3379 13.7798 32.6135 14.4875 32.6135C15.1953 32.6135 15.8607 32.3379 16.3612 31.8374L17.3439 30.8546L18.6713 32.1819C19.1718 32.6824 19.8373 32.958 20.545 32.958C21.2528 32.958 21.9182 32.6824 22.4187 32.1819C22.969 31.6317 23.226 30.8975 23.1902 30.1754C23.2343 30.1776 23.2786 30.1789 23.3229 30.1789C24.0015 30.1789 24.6801 29.9206 25.1967 29.4039C25.7401 28.8605 25.9973 28.1378 25.969 27.4244C26.0046 27.4258 26.0402 27.427 26.076 27.427C26.7837 27.427 27.4492 27.1514 27.9496 26.6509C28.4931 26.1075 28.7502 25.3848 28.722 24.6714C28.7575 24.6728 28.7931 24.674 28.8289 24.674C29.5367 24.674 30.2021 24.3984 30.7026 23.8979C30.9568 23.6437 31.1482 23.3501 31.2773 23.0367C31.3457 23.0034 31.41 22.959 31.4669 22.9022L32.8305 21.5386C36.2689 18.1009 36.9932 12.7514 34.5926 8.52978ZM6.22863 22.9481C5.89648 22.9481 5.58422 22.8188 5.3493 22.5839C5.11446 22.3491 4.98509 22.0368 4.98509 21.7047C4.98509 21.3726 5.11439 21.0602 5.3493 20.8254L6.56107 19.6136C6.79591 19.3787 7.10824 19.2494 7.4404 19.2494C7.77248 19.2494 8.08481 19.3787 8.31966 19.6136C8.80453 20.0985 8.80453 20.8873 8.31966 21.3721L7.10789 22.584C6.87305 22.8188 6.56086 22.9481 6.22863 22.9481ZM8.10246 25.337C7.86755 25.1022 7.73824 24.7898 7.73824 24.4577C7.73824 24.1256 7.86755 23.8133 8.10246 23.5785L9.3143 22.3666C9.3143 22.3666 9.3143 22.3666 9.3143 22.3666C9.54914 22.1317 9.8614 22.0024 10.1936 22.0024C10.5256 22.0024 10.838 22.1317 11.0728 22.3666C11.5577 22.8514 11.5577 23.6403 11.0728 24.1251L9.86105 25.3369C9.3761 25.8217 8.58706 25.8217 8.10246 25.337ZM10.8554 28.0899C10.6205 27.8551 10.4912 27.5428 10.4912 27.2107C10.4912 26.8785 10.6205 26.5663 10.8554 26.3314L12.0672 25.1196C12.0672 25.1196 12.0672 25.1196 12.0672 25.1195C12.3021 24.8847 12.6143 24.7553 12.9465 24.7553C13.2787 24.7553 13.5909 24.8846 13.8258 25.1195C14.3106 25.6045 14.3106 26.3933 13.8258 26.8781L12.6139 28.0899C12.1291 28.5748 11.3403 28.5748 10.8554 28.0899ZM16.5788 29.6312L15.3669 30.8431C15.1321 31.0779 14.8198 31.2073 14.4877 31.2073C14.1556 31.2073 13.8433 31.078 13.6084 30.8431C13.1235 30.3582 13.1235 29.5693 13.6084 29.0845L14.8203 27.8727C14.8203 27.8727 14.8203 27.8727 14.8203 27.8726C15.0551 27.6378 15.3674 27.5084 15.6995 27.5084C16.0316 27.5084 16.3439 27.6377 16.5788 27.8726C16.8137 28.1075 16.943 28.4198 16.943 28.7519C16.9431 29.0842 16.8137 29.3964 16.5788 29.6312ZM29.7086 22.9035C29.4738 23.1384 29.1615 23.2677 28.8294 23.2677C28.4972 23.2677 28.185 23.1384 27.9501 22.9035L25.0232 19.9766C25.0231 19.9764 25.023 19.9764 25.0229 19.9762L22.2701 17.2235C21.9955 16.9489 21.5504 16.9489 21.2756 17.2235C21.0011 17.4981 21.0011 17.9434 21.2756 18.2179L26.9556 23.8978C27.4405 24.3827 27.4405 25.1716 26.9556 25.6564C26.7208 25.8913 26.4085 26.0206 26.0764 26.0206C25.7442 26.0206 25.432 25.8913 25.1971 25.6564L19.5171 19.9764C19.2425 19.7019 18.7973 19.7019 18.5226 19.9764C18.2481 20.251 18.2481 20.6963 18.5226 20.9709L21.2751 23.7233C21.2753 23.7235 21.2755 23.7238 21.2757 23.724L24.2027 26.6509C24.6876 27.1358 24.6876 27.9247 24.2028 28.4095C23.7178 28.8944 22.9288 28.8944 22.4442 28.4095L19.5172 25.4825C19.4631 25.4285 19.4022 25.3854 19.3375 25.3527L18.5027 24.5179C18.228 24.2434 17.7829 24.2434 17.5082 24.5179C17.2336 24.7924 17.2336 25.2377 17.5082 25.5124L21.4247 29.4288C21.9096 29.9137 21.9096 30.7025 21.4247 31.1873C21.1899 31.4223 20.8775 31.5516 20.5455 31.5516C20.2133 31.5516 19.901 31.4223 19.6662 31.1873L18.1759 29.6971C18.2894 29.3992 18.3495 29.0802 18.3495 28.7518C18.3495 28.044 18.0738 27.3786 17.5733 26.8781C17.0728 26.3776 16.4074 26.102 15.6997 26.102C15.6639 26.102 15.6283 26.1032 15.5927 26.1046C15.6209 25.3912 15.3638 24.6685 14.8204 24.1251C14.3198 23.6246 13.6544 23.349 12.9467 23.349C12.9109 23.349 12.8753 23.3502 12.8398 23.3516C12.868 22.6382 12.6109 21.9155 12.0675 21.3721C11.5669 20.8716 10.9015 20.596 10.1938 20.596C10.158 20.596 10.1224 20.5972 10.0868 20.5986C10.1151 19.8852 9.85795 19.1625 9.31451 18.6191C8.28134 17.5859 6.60009 17.586 5.56692 18.6191L4.35516 19.8308C4.2023 19.9837 4.07271 20.151 3.96499 20.328C2.31328 18.5736 1.40667 16.2929 1.40667 13.8726C1.40667 11.3552 2.38697 8.98843 4.16714 7.2084C5.94717 5.42836 8.31403 4.448 10.8314 4.448C13.119 4.448 15.2823 5.25772 16.9938 6.74145L12.6726 11.0626C12.102 11.6334 11.7877 12.3921 11.7877 13.1992C11.7877 14.0063 12.102 14.765 12.6726 15.3357C13.2617 15.9248 14.0355 16.2193 14.8092 16.2193C15.5829 16.2193 16.3567 15.9248 16.9458 15.3357L18.8606 13.421H21.3393C21.544 13.421 21.7464 13.407 21.9464 13.3822L29.7091 21.1448C30.1935 21.6298 30.1935 22.4188 29.7086 22.9035Z" fill="white"/>
</svg>
