<svg width="43" height="48" viewBox="0 0 43 48" fill="none" xmlns="http://www.w3.org/2000/svg">
<path d="M1.60031 37.8684C1.42594 37.6941 1.18406 37.5938 0.9375 37.5938C0.690938 37.5938 0.449063 37.694 0.274688 37.8684C0.100313 38.0428 0 38.2847 0 38.5312C0 38.7778 0.100313 39.0197 0.274688 39.194C0.449063 39.3684 0.690938 39.4688 0.9375 39.4688C1.18406 39.4688 1.42594 39.3684 1.60031 39.194C1.77469 39.0197 1.875 38.7778 1.875 38.5312C1.875 38.2847 1.77469 38.0428 1.60031 37.8684Z" fill="url(#paint0_linear)"/>
<path d="M39.2463 10.8739C39.2459 10.8736 39.2455 10.8732 39.2451 10.8729L32.9951 6.65119C31.7968 5.84175 30.3694 5.54212 29.0028 5.74369C29.0638 5.44922 29.0958 5.14659 29.0958 4.83891C29.0958 3.65963 28.6365 2.55094 27.8026 1.71694L27.3787 1.29309C26.5449 0.459187 25.4362 0 24.2569 0C23.0776 0 21.9688 0.459187 21.1348 1.29319C20.3009 2.12719 19.8417 3.23588 19.8417 4.41525C19.8417 5.59453 20.301 6.70322 21.1348 7.53713L21.5587 7.96106C22.0898 8.49206 22.7325 8.87044 23.4337 9.07575L17.1259 13.8283C16.7244 14.1307 16.433 14.528 16.2617 14.9669C15.8077 14.8752 15.3266 14.9009 14.8665 15.0653L8.75597 17.2459C8.97919 16.7183 9.10266 16.1388 9.10266 15.5309V14.9315C9.10266 12.497 7.122 10.5163 4.6875 10.5163C2.253 10.5163 0.272344 12.497 0.272344 14.9315V15.5309C0.272344 17.2249 1.23178 18.6982 2.63531 19.4384C1.04953 20.1085 0 21.6748 0 23.4114V34.5938C0 35.1114 0.419719 35.5312 0.9375 35.5312C1.45528 35.5312 1.875 35.1114 1.875 34.5938V32.8781H5.57278C5.76797 32.8781 5.94919 32.8183 6.09928 32.7162L10.3386 29.8386C10.7553 29.5557 11.2418 29.4063 11.7453 29.4063C13.1263 29.4063 14.2499 30.5298 14.2499 31.9108V37.7209L11.6249 38.7713V34.0781C11.6249 33.7405 11.4434 33.4291 11.1499 33.2626C10.8563 33.0962 10.4959 33.1003 10.2062 33.2736L5.45625 36.1151C4.86637 36.468 4.5 37.1142 4.5 37.8016V46.125H1.875V42.1894C1.875 41.6717 1.45528 41.2519 0.9375 41.2519C0.419719 41.2519 0 41.6717 0 42.1894V47.0625C0 47.5802 0.419719 48 0.9375 48H5.4375C5.95528 48 6.375 47.5802 6.375 47.0625V37.8016C6.375 37.77 6.39188 37.7403 6.41888 37.7242L9.75 35.7314V47.0625C9.75 47.5802 10.1697 48 10.6875 48H42C42.5178 48 42.9375 47.5802 42.9375 47.0625V17.6927C42.9375 14.9309 41.5579 12.3833 39.2463 10.8739ZM22.8846 6.63534L22.4607 6.21131C21.9809 5.73159 21.7167 5.09372 21.7167 4.41525C21.7167 3.73669 21.9809 3.09881 22.4607 2.61909C22.9404 2.13919 23.5783 1.875 24.2569 1.875C24.9354 1.875 25.5732 2.13919 26.053 2.61909L26.4769 3.04294C27.4673 4.03322 27.4673 5.64488 26.4769 6.63525C25.4864 7.62563 23.8748 7.62563 22.8846 6.63534ZM18.2542 15.3258L27.555 8.31816C28.8439 7.34719 30.6083 7.30172 31.9456 8.20491L37.1428 11.7156L32.556 15.4053L28.9588 12.9754C28.6991 12.7999 28.3689 12.7658 28.0788 12.8846L18.9841 16.6089C18.6464 16.7469 18.252 16.6156 18.0646 16.3031C18.0637 16.3016 18.0628 16.3002 18.062 16.2987C17.8686 15.9724 17.9512 15.5541 18.2542 15.3258ZM2.14734 15.5309V14.9315C2.14734 13.5308 3.28688 12.3913 4.6875 12.3913C6.08812 12.3913 7.22766 13.5307 7.22766 14.9315V15.5309C7.22766 16.9315 6.08812 18.0712 4.6875 18.0712C3.28688 18.0712 2.14734 16.9316 2.14734 15.5309ZM7.5 24.5937V29.4994L5.28478 31.0031H1.875V28.4688V23.4114C1.875 22.383 2.52572 21.4599 3.49425 21.1143L15.4966 16.831C15.8308 16.7119 16.2051 16.8468 16.386 17.1521C16.5848 17.4876 16.4888 17.9233 16.1676 18.1441L7.9065 23.8211C7.65206 23.996 7.5 24.2849 7.5 24.5937ZM11.7454 27.5313C10.9005 27.5313 10.0836 27.7726 9.375 28.229V25.0869L17.2296 19.6893C17.6765 19.3822 17.999 18.9568 18.1833 18.4821C18.3571 18.5177 18.5347 18.5367 18.7134 18.5367C19.0431 18.5367 19.3761 18.4745 19.6947 18.344L28.3252 14.8099L32.0504 17.3262C32.88 17.9622 33.3751 18.9639 33.3751 20.0098V27.375H31.5313C31.3238 27.375 31.1223 27.4438 30.958 27.5707L21.6391 34.7719L16.125 36.9745V31.9108C16.125 29.4959 14.1603 27.5313 11.7454 27.5313ZM41.0625 46.125H11.625V40.7912L22.4563 36.4643C22.5371 36.4321 22.613 36.3888 22.6818 36.3356L31.8513 29.25H41.0625V46.125ZM41.0625 27.375H39.1875V19.9812C39.1875 19.4635 38.7678 19.0437 38.25 19.0437C37.7322 19.0437 37.3125 19.4635 37.3125 19.9812V27.375H35.25V20.0098C35.25 18.7711 34.8027 17.5725 34.0195 16.6343L38.7495 12.8295C40.2084 14.0135 41.0625 15.7867 41.0625 17.6927V27.375Z" fill="url(#paint1_linear)"/>
<path d="M37.5 33.0312H35.3125C34.7947 33.0312 34.375 33.4511 34.375 33.9688C34.375 34.4864 34.7947 34.9062 35.3125 34.9062H36.5625V38.5313C36.5625 39.049 36.9822 39.4688 37.5 39.4688C38.0178 39.4688 38.4375 39.049 38.4375 38.5313V33.9688C38.4375 33.4511 38.0178 33.0312 37.5 33.0312Z" fill="url(#paint2_linear)"/>
<path d="M38.1628 41.5267C37.9884 41.3523 37.7466 41.252 37.5 41.252C37.2534 41.252 37.0116 41.3523 36.8372 41.5267C36.6628 41.701 36.5625 41.9429 36.5625 42.1895C36.5625 42.436 36.6628 42.6779 36.8372 42.8523C37.0116 43.0266 37.2534 43.127 37.5 43.127C37.7466 43.127 37.9884 43.0267 38.1628 42.8523C38.3372 42.6778 38.4375 42.436 38.4375 42.1895C38.4375 41.9429 38.3372 41.701 38.1628 41.5267Z" fill="url(#paint3_linear)"/>
<defs>
<linearGradient id="paint0_linear" x1="0" y1="39.4688" x2="1.875" y2="39.4688" gradientUnits="userSpaceOnUse">
<stop stop-color="#2F80ED"/>
<stop offset="1" stop-color="#56CCF2"/>
</linearGradient>
<linearGradient id="paint1_linear" x1="0" y1="48" x2="42.9375" y2="48" gradientUnits="userSpaceOnUse">
<stop stop-color="#2F80ED"/>
<stop offset="1" stop-color="#56CCF2"/>
</linearGradient>
<linearGradient id="paint2_linear" x1="34.375" y1="39.4688" x2="38.4375" y2="39.4688" gradientUnits="userSpaceOnUse">
<stop stop-color="#2F80ED"/>
<stop offset="1" stop-color="#56CCF2"/>
</linearGradient>
<linearGradient id="paint3_linear" x1="36.5625" y1="43.127" x2="38.4375" y2="43.127" gradientUnits="userSpaceOnUse">
<stop stop-color="#2F80ED"/>
<stop offset="1" stop-color="#56CCF2"/>
</linearGradient>
</defs>
</svg>
