<svg width="64" height="64" viewBox="0 0 64 64" fill="none" xmlns="http://www.w3.org/2000/svg">
<path fill-rule="evenodd" clip-rule="evenodd" d="M32 50.5C30.6193 50.5 29.5 49.3807 29.5 48V23.0355L17.8579 34.6777C16.8816 35.654 15.2986 35.654 14.3223 34.6777C13.346 33.7014 13.346 32.1184 14.3223 31.1421L30.2322 15.2322C31.2085 14.2559 32.7915 14.2559 33.7678 15.2322L49.6777 31.1421C50.654 32.1184 50.654 33.7014 49.6777 34.6777C48.7014 35.654 47.1184 35.654 46.1421 34.6777L34.5 23.0355V48C34.5 49.3807 33.3807 50.5 32 50.5ZM32 59C46.9117 59 59 46.9117 59 32C59 17.0883 46.9117 5 32 5C17.0883 5 5 17.0883 5 32C5 46.9117 17.0883 59 32 59ZM32 64C49.6731 64 64 49.6731 64 32C64 14.3269 49.6731 0 32 0C14.3269 0 0 14.3269 0 32C0 49.6731 14.3269 64 32 64Z" fill="url(#paint0_linear)"/>
<defs>
<linearGradient id="paint0_linear" x1="0" y1="64" x2="64" y2="64" gradientUnits="userSpaceOnUse">
<stop stop-color="#2F80ED"/>
<stop offset="1" stop-color="#56CCF2"/>
</linearGradient>
</defs>
</svg>
