<svg width="14" height="16" viewBox="0 0 14 16" fill="none" xmlns="http://www.w3.org/2000/svg">
<path d="M13.3184 6.31837C13.3184 2.82775 10.4906 0 6.99999 0C3.50938 0 0.681625 2.82775 0.681625 6.31837C0.681625 6.7298 0.720809 7.12816 0.795911 7.51673C0.795911 7.51673 0.805707 7.58531 0.83836 7.71265C0.936319 8.1502 1.07999 8.56816 1.26612 8.96653C1.92244 10.5273 3.46693 13.1624 6.99999 16C10.5331 13.1624 12.0775 10.5273 12.7371 8.9698C12.92 8.57143 13.0637 8.15347 13.1649 7.71592C13.1943 7.58857 13.2073 7.52 13.2073 7.52C13.2792 7.13143 13.3184 6.7298 13.3184 6.31837ZM6.99999 10.0139C4.44652 10.0139 3.37632 7.94367 3.37632 6.3902C3.37632 3.83673 5.44652 2.7698 6.99999 2.7698C8.55346 2.7698 10.6237 3.84 10.6237 6.39347C10.6237 7.94694 9.55346 10.0139 6.99999 10.0139Z" fill="white"/>
</svg>
