<svg width="36" height="36" viewBox="0 0 36 36" fill="none" xmlns="http://www.w3.org/2000/svg">
<path fill-rule="evenodd" clip-rule="evenodd" d="M36 18C36 27.9412 27.9411 36.0001 18 36.0001C8.05888 36.0001 0 27.9412 0 18C0 8.05889 8.05888 0 18 0C27.9411 0 36 8.05889 36 18ZM18.7329 25.8945H17.3201C17.3201 25.8945 14.2029 26.0822 11.4578 23.2242C8.46414 20.107 5.8202 13.9213 5.8202 13.9213C5.8202 13.9213 5.66779 13.5157 5.83336 13.3197C6.01946 13.0992 6.52643 13.0851 6.52643 13.0851L9.90355 13.063C9.90355 13.063 10.2219 13.1163 10.4497 13.2834C10.6374 13.4214 10.7426 13.6794 10.7426 13.6794C10.7426 13.6794 11.2884 15.0597 12.0113 16.3086C13.4222 18.7465 14.0793 19.2798 14.5584 19.0186C15.2563 18.6377 15.0471 15.5722 15.0471 15.5722C15.0471 15.5722 15.0599 14.4594 14.6957 13.964C14.4137 13.5799 13.8817 13.4679 13.6468 13.4365C13.4568 13.4111 13.7687 12.9699 14.173 12.772C14.7807 12.4742 15.854 12.4572 17.1221 12.4703C18.11 12.4803 18.3943 12.5419 18.7807 12.6353C19.677 12.8517 19.649 13.5451 19.5887 15.0414C19.5707 15.4885 19.5498 16.0072 19.5498 16.6063C19.5498 16.7411 19.5459 16.8848 19.5418 17.0326C19.5209 17.7989 19.4969 18.6762 20.0012 19.0022C20.2599 19.1691 20.8926 19.0273 22.4751 16.34C23.2253 15.0665 23.7878 13.569 23.7878 13.569C23.7878 13.569 23.9107 13.302 24.1016 13.1875C24.297 13.0707 24.5604 13.1066 24.5604 13.1066L28.1144 13.0845C28.1144 13.0845 29.1822 12.9571 29.3552 13.439C29.5364 13.9451 28.956 15.1265 27.5041 17.0616C26.1252 18.8994 25.4552 19.5749 25.5182 20.1732C25.5641 20.6094 25.9996 21.0045 26.8341 21.779C28.5835 23.4028 29.0497 24.2554 29.1605 24.4581C29.1695 24.4745 29.1761 24.4866 29.1809 24.4945C29.9638 25.7928 28.3127 25.8945 28.3127 25.8945L25.1563 25.9384C25.1563 25.9384 24.478 26.0729 23.5853 25.4597C23.1185 25.1393 22.6621 24.6161 22.2273 24.1176C21.5625 23.3555 20.9481 22.6511 20.4238 22.8174C19.544 23.0965 19.5716 24.9922 19.5716 24.9922C19.5716 24.9922 19.578 25.3971 19.3775 25.6128C19.1596 25.8476 18.7329 25.8945 18.7329 25.8945Z" fill="white"/>
</svg>
