<svg width="24" height="24" viewBox="0 0 24 24" fill="none" xmlns="http://www.w3.org/2000/svg">
<path fill-rule="evenodd" clip-rule="evenodd" d="M24 12C24 18.6275 18.6274 24 12 24C5.37258 24 0 18.6275 0 12C0 5.37259 5.37258 0 12 0C18.6274 0 24 5.37259 24 12ZM12.4886 17.263H11.5467C11.5467 17.263 9.46857 17.3881 7.63856 15.4828C5.64276 13.4047 3.88013 9.28087 3.88013 9.28087C3.88013 9.28087 3.77853 9.01049 3.8889 8.87979C4.01297 8.73283 4.35095 8.72342 4.35095 8.72342L6.60237 8.70866C6.60237 8.70866 6.81457 8.74417 6.96645 8.85561C7.09159 8.9476 7.16175 9.11958 7.16175 9.11958C7.16175 9.11958 7.52561 10.0398 8.00755 10.8724C8.94812 12.4977 9.38621 12.8532 9.70558 12.6791C10.1708 12.4252 10.0314 10.3814 10.0314 10.3814C10.0314 10.3814 10.0399 9.6396 9.79714 9.30932C9.60911 9.05327 9.25444 8.97861 9.09786 8.95765C8.97122 8.94075 9.17915 8.64662 9.44868 8.51464C9.85382 8.31613 10.5694 8.30479 11.4147 8.31356C12.0734 8.32019 12.2629 8.36126 12.5204 8.42351C13.118 8.56779 13.0993 9.0301 13.0591 10.0276C13.0471 10.3256 13.0332 10.6715 13.0332 11.0709C13.0332 11.1607 13.0306 11.2565 13.0279 11.3551C13.0139 11.8659 12.9979 12.4508 13.3342 12.6682C13.5066 12.7794 13.9284 12.6848 14.9834 10.8933C15.4835 10.0443 15.8585 9.046 15.8585 9.046C15.8585 9.046 15.9405 8.86802 16.0677 8.79165C16.198 8.71379 16.3736 8.73775 16.3736 8.73775L18.7429 8.72299C18.7429 8.72299 19.4548 8.63807 19.5701 8.95936C19.691 9.2967 19.304 10.0843 18.3361 11.3744C17.4168 12.5996 16.9701 13.0499 17.0121 13.4488C17.0428 13.7396 17.3331 14.003 17.8894 14.5194C19.0556 15.6019 19.3665 16.1703 19.4403 16.3054C19.4463 16.3163 19.4508 16.3244 19.454 16.3297C19.9759 17.1952 18.8751 17.263 18.8751 17.263L16.7709 17.2923C16.7709 17.2923 16.3187 17.3819 15.7236 16.9731C15.4123 16.7595 15.1081 16.4107 14.8182 16.0784C14.375 15.5703 13.9654 15.1007 13.6159 15.2116C13.0293 15.3977 13.0477 16.6615 13.0477 16.6615C13.0477 16.6615 13.052 16.9314 12.9183 17.0752C12.7731 17.2318 12.4886 17.263 12.4886 17.263Z" fill="white"/>
</svg>
